<svg width="386" height="99" viewBox="0 0 386 99" fill="none" xmlns="http://www.w3.org/2000/svg">
<path d="M106.942 40.6811C107.057 40.3738 106.972 40.1196 106.928 39.9818C106.923 39.9649 106.917 39.9501 106.913 39.9331C106.839 39.6704 106.733 39.4352 106.631 39.2085C106.544 39.0178 106.464 38.8377 106.415 38.6681C106.269 38.1469 106.051 37.7782 105.707 37.4773C105.697 37.4604 105.68 37.4223 105.667 37.3947C105.656 37.3714 105.646 37.3481 105.635 37.3269C105.455 36.9561 105.144 36.7146 104.773 36.6616C104.531 36.3522 104.201 36.0874 103.788 35.8734C103.771 35.8585 103.754 35.8416 103.737 35.8267C103.616 35.7102 103.339 35.4475 102.913 35.5047C102.902 35.4962 102.887 35.4877 102.87 35.4771C102.676 35.3415 102.411 35.1572 102.068 35.1021C101.777 35.0555 101.489 34.9389 101.182 34.816C100.887 34.6974 100.582 34.5745 100.241 34.4982C99.8451 34.4092 99.4553 34.2969 99.0443 34.1804C98.5718 34.0448 98.0846 33.9071 97.5846 33.8032C97.5316 33.7926 97.4786 33.7757 97.4257 33.7609C97.2308 33.7058 96.9893 33.6358 96.7011 33.6761C96.3113 33.7312 95.8854 33.6231 95.6015 33.5384C95.1439 33.4006 94.6948 33.3604 94.2626 33.3201C93.8262 33.2799 93.4152 33.2439 93.0402 33.1082C92.7733 33.0129 92.519 33.0637 92.3347 33.1019C92.2817 33.1125 92.2309 33.1231 92.197 33.1273C92.197 33.1273 92.197 33.1273 92.1949 33.1273C92.1207 33.0892 92.0317 33.0595 91.9258 33.0383C91.9152 33.0383 91.9046 33.0341 91.9004 33.0341C91.3728 32.8752 90.8686 32.8836 90.3792 32.89C90.1038 32.8942 89.8454 32.8985 89.5975 32.873C89.4386 32.8561 89.2776 32.8434 89.1166 32.8307C88.75 32.801 88.4047 32.7735 88.0763 32.6951C87.9429 32.6633 87.5573 32.5701 87.2649 32.7904C87.2458 32.7841 87.2289 32.7777 87.2119 32.7713C87.1802 32.7586 87.1463 32.7459 87.1145 32.7353C86.873 32.6506 86.6717 32.6802 86.534 32.7014C86.462 32.712 86.3899 32.7268 86.3158 32.7396C86.2098 32.7607 86.0297 32.7946 85.9747 32.7819C85.6844 32.6887 85.4217 32.7184 85.212 32.7438C85.0934 32.7565 84.9705 32.7713 84.9344 32.748C84.748 32.6209 84.5107 32.6124 84.2989 32.7205C84.0468 32.5934 83.7756 32.5616 83.515 32.6273C83.0934 32.7311 82.6442 32.729 82.0976 32.6209L82.0765 32.6167C81.7608 32.551 81.5405 32.6082 81.3858 32.7099C81.1167 32.6209 80.8561 32.6421 80.6718 32.6548C80.5849 32.6612 80.5024 32.6675 80.4452 32.6633C80.4155 32.6612 80.39 32.6569 80.371 32.6548C80.2841 32.4429 80.1655 32.2713 80.0596 32.1187C79.9727 31.9937 79.8986 31.8857 79.8625 31.7882C79.6994 31.339 79.4176 31.0063 79.1676 30.7118C79.0342 30.555 78.9091 30.4067 78.8117 30.2541C78.5744 29.8812 78.2969 29.5464 78.032 29.2201C77.8626 29.0125 77.7015 28.8175 77.5511 28.6141C77.121 28.0314 76.7588 27.6246 76.3795 27.2941C76.2905 27.2157 76.1974 27.1436 76.1042 27.0695C75.9071 26.9148 75.7355 26.7792 75.6275 26.6182C75.4643 26.3766 75.2419 26.2389 75.0787 26.1393C75.0067 26.0948 74.9008 26.0291 74.8838 25.9973C74.6953 25.6308 74.3966 25.349 73.975 25.1328C73.8415 25.065 73.744 24.9718 73.6572 24.8277L73.6402 24.798C73.5449 24.6349 73.3436 24.298 72.922 24.2704C72.8373 24.2641 72.7525 24.1921 72.5936 24.0353C72.5491 23.9929 72.5067 23.9505 72.4622 23.9102C71.9029 23.3996 71.2716 23.033 70.6614 22.6792C70.3458 22.497 70.0492 22.3253 69.7632 22.1346C69.5725 22.0075 69.3755 21.8952 69.1848 21.785C68.9878 21.6727 68.8013 21.5647 68.6297 21.4481C68.4857 21.3507 68.3416 21.2701 68.2039 21.1917C68.0598 21.1091 67.9221 21.0328 67.8077 20.9502C67.5492 20.7616 67.2696 20.7616 67.1064 20.7658C67.0408 20.6832 66.9264 20.5857 66.7569 20.5582C66.5832 20.3887 66.3671 20.3294 66.2717 20.3018C66.2484 20.2955 66.2251 20.2891 66.206 20.2827C65.9624 20.1704 65.7188 20.0942 65.4836 20.0179C65.1552 19.9141 64.8459 19.8145 64.6023 19.6365C64.4731 19.5411 64.079 19.253 63.6171 19.3907C63.5896 19.3865 63.5112 19.3462 63.4497 19.3165L63.3926 19.2869C63.2485 19.2148 63.0875 19.1322 62.8947 19.075C62.7294 19.0263 62.5684 18.9902 62.4138 18.9584C62.1044 18.8906 61.8375 18.8334 61.6363 18.6851C61.4435 18.541 61.2252 18.4923 61.0261 18.5474C60.829 18.6025 60.6257 18.5389 60.31 18.4287C60.1172 18.363 59.9011 18.2868 59.6638 18.2507C59.6363 18.2465 59.5918 18.2338 59.5473 18.219C59.3736 18.1681 59.0494 18.0728 58.7062 18.2317C58.6723 18.2168 58.6384 18.1978 58.6045 18.1808C58.4456 18.1003 58.2295 17.9901 57.9435 17.9753L57.8207 17.9689C57.3037 17.9414 56.8143 17.916 56.3588 17.7761C56.3482 17.774 56.3376 17.7698 56.327 17.7655C56.0029 17.649 55.7274 17.6659 55.505 17.8143C55.3503 17.7528 55.1745 17.7274 55.0029 17.7401C54.4224 17.7888 53.808 17.8227 53.2339 17.6681C53.1258 17.6384 52.8695 17.5706 52.6237 17.7147C52.5687 17.7465 52.5199 17.7867 52.4776 17.8333C52.4733 17.8333 52.467 17.8333 52.4627 17.8312C52.2212 17.7443 52.0115 17.7571 51.8335 17.8694C51.7064 17.846 51.5941 17.8524 51.5347 17.8566C51.5199 17.8566 51.4987 17.8566 51.4924 17.8588C51.3038 17.8545 51.1259 17.8842 50.9712 17.9096C50.753 17.9456 50.6238 17.9647 50.5242 17.9181C50.217 17.774 49.8653 17.863 49.6407 18.113C49.378 18.0601 49.1429 18.1003 48.9586 18.13C48.8908 18.1406 48.8272 18.1512 48.7721 18.1554C48.5433 18.1724 48.3442 18.2465 48.1853 18.3058C48.0052 18.3736 47.912 18.4012 47.8569 18.38C47.7086 18.3228 47.5539 18.3291 47.3929 18.3948C47.2828 18.433 47.1832 18.4775 47.0942 18.5177C46.9035 18.6046 46.8124 18.6406 46.7446 18.6194C46.4904 18.541 46.2468 18.6343 46.1027 18.7466C46.0095 18.8207 45.8569 18.861 45.6832 18.9076C45.4608 18.9669 45.2087 19.0368 44.9608 19.1958C44.9121 19.2275 44.8019 19.253 44.6938 19.2805C44.4544 19.3377 44.1133 19.4204 43.8422 19.7022C43.5413 19.7128 43.2659 19.8357 43.0011 20.0709L42.9778 20.092C42.7066 20.1069 42.4693 20.1853 42.2701 20.251C42.1028 20.306 41.9566 20.3548 41.8337 20.3548C41.5032 20.3548 41.2426 20.5052 41.0985 20.7531C41.0053 20.7383 40.9015 20.7447 40.7892 20.7849C40.7003 20.8167 40.5922 20.8781 40.5011 20.9968C40.3507 20.9735 40.1939 21.0095 40.0668 21.1049C39.9651 21.1811 39.8931 21.2892 39.8592 21.4079C39.7935 21.4206 39.7257 21.4418 39.6516 21.4714C39.516 21.4354 39.3656 21.4502 39.2363 21.5202C39.1241 21.5816 38.9884 21.6325 38.8465 21.6876C38.4546 21.8401 37.9715 22.0287 37.6453 22.5224L37.6325 22.5266C37.0965 22.7194 36.7088 23.1178 36.5033 23.6835C36.3804 23.6772 36.2681 23.6878 36.177 23.6984L36.1453 23.7026C35.5203 23.7662 35.1856 24.1476 35.2004 24.7747C35.2004 24.8044 35.1729 24.8404 35.1517 24.851C34.6453 24.69 34.2237 24.8722 33.9907 25.3574L33.9843 25.3723C33.6962 25.5757 33.5881 25.8151 33.5521 25.9889C33.5309 26.0821 33.5267 26.1753 33.5352 26.2707C33.3847 26.33 33.2682 26.4147 33.1941 26.4677L33.1644 26.4889C32.9398 26.6478 32.8614 26.8703 32.8381 27.0631C32.6326 27.1839 32.5077 27.3492 32.4335 27.4932C31.5903 27.6352 31.3954 28.2009 31.3594 28.5823C30.8128 28.8896 30.6242 29.2244 30.7174 29.7689C30.6009 29.8409 30.5183 29.9236 30.4568 30.0105C30.2513 29.9702 30.0289 30.0168 29.8573 30.1439C29.6666 30.288 29.5713 30.5126 29.5967 30.7415C29.5925 30.7457 29.5861 30.7499 29.5819 30.7563C29.4993 30.8347 29.3531 30.9724 29.2662 31.1674C29.1264 31.2394 28.9993 31.3517 28.8997 31.4979C28.726 31.7543 28.6751 32.0467 28.7598 32.2988C28.8573 32.5912 29.1179 32.8158 29.423 32.8709C29.6857 32.9175 29.9399 32.8286 30.0988 32.6294C30.1391 32.5785 30.1857 32.5319 30.2302 32.4832C30.3891 32.3137 30.5882 32.1039 30.692 31.7797C30.7217 31.75 30.8467 31.7013 30.9293 31.6695C31.0564 31.6208 31.1963 31.5657 31.3361 31.4788C31.459 31.4598 31.7259 31.411 31.9251 31.1864C32.0691 31.1313 32.1708 31.0487 32.2407 30.9491C32.4166 30.9046 32.5267 30.8029 32.5776 30.7436C32.6453 30.6673 32.7703 30.483 32.7386 30.2012C32.8699 30.1185 32.9886 30.0168 33.0945 29.896C33.1475 29.9172 33.2047 29.9299 33.264 29.9342C33.3699 29.9427 33.5712 29.9278 33.7534 29.735L33.7682 29.7223C33.8318 29.663 33.9759 29.5295 34.0479 29.3261C34.1051 29.3006 34.1538 29.2752 34.1919 29.2519C34.3466 29.3155 34.497 29.3324 34.6368 29.3239C34.6771 29.4617 34.7533 29.7011 35.0076 29.8685C35.1114 29.9363 35.2301 29.9723 35.3487 29.9723C35.4271 29.9723 35.5055 29.9575 35.5796 29.9257C35.7809 29.8409 35.9059 29.6714 35.9525 29.4193V29.4087C35.9801 29.2731 35.9589 29.1354 35.8911 29.0167C35.8847 29.0019 35.8805 28.9849 35.8741 28.968C35.8444 28.8832 35.8021 28.7603 35.7131 28.6374C35.7364 28.5527 35.7449 28.4658 35.7385 28.3747C35.7873 28.3577 35.836 28.3344 35.8805 28.3069C36.0881 28.1819 36.2237 27.9658 36.2512 27.7157C36.2703 27.5441 36.3911 27.4572 36.7491 27.2814L36.8275 27.2411C37.1071 27.1013 37.4207 26.9868 37.7512 26.8682C37.8804 26.8216 38.0096 26.775 38.1367 26.7262C38.1495 26.7241 38.1643 26.722 38.177 26.7199C38.3147 26.7008 38.6029 26.6584 38.8084 26.3893C38.8211 26.3724 38.8274 26.3681 38.8274 26.3681C38.8274 26.3681 38.8571 26.3554 38.9503 26.3639C39.1198 26.3808 39.5604 26.4232 39.9418 26.1308C40.0435 26.2516 40.177 26.3554 40.3698 26.3893C40.7087 26.4508 40.9587 26.2431 41.124 26.1054C41.1981 26.0439 41.2447 26.0122 41.2723 25.9973C41.3062 26.0164 41.3697 26.0567 41.4841 26.1499C41.6981 26.3321 41.9227 26.3936 42.1515 26.3321C42.3655 26.2749 42.5329 26.1117 42.6112 25.885C42.624 25.8448 42.6409 25.8066 42.6557 25.7664C42.6917 25.6731 42.7384 25.5524 42.768 25.4168C42.8867 25.421 43.0286 25.4104 43.1684 25.3553C43.3612 25.4083 43.5413 25.3807 43.6345 25.368C43.643 25.368 43.6536 25.3659 43.6621 25.3638C43.7532 25.3892 43.8951 25.421 44.0519 25.4019C44.0455 25.5481 44.0731 25.6753 44.0943 25.7727C44.0985 25.7939 44.1049 25.8215 44.1091 25.8426C44.0053 26.1626 43.9884 26.6203 44.4311 27.0758L44.4481 27.0949C44.7447 27.4127 45.0307 27.4106 45.215 27.3555C45.2574 27.4763 45.3379 27.5971 45.4671 27.7051C45.6853 27.8874 45.9036 27.8725 46.0158 27.8471C46.1303 27.8217 46.2806 27.7517 46.3972 27.5738C46.4077 27.5886 46.4162 27.6034 46.4268 27.6161C46.6874 27.9658 47.1302 28.0569 47.5624 27.8577C47.8463 28.0103 48.1641 28.0102 48.4459 27.8619C48.8336 28.2073 49.2043 28.1268 49.4014 28.0442C49.4331 28.0675 49.4691 28.0992 49.4861 28.1162C49.503 28.131 49.5221 28.1416 49.539 28.1543C49.4585 28.1946 49.3844 28.2476 49.3229 28.3154C49.1831 28.4679 49.1132 28.6756 49.1281 28.9065C49.1344 29.0104 49.1492 29.2879 49.3908 29.4786C49.5073 29.5697 49.6471 29.6185 49.7933 29.6185C49.8356 29.6185 49.8759 29.6142 49.9204 29.6079C50.3272 29.5337 50.467 29.1905 50.5136 29.076L50.5221 29.0549C50.5539 28.9913 50.575 28.9214 50.5814 28.8493C50.5962 28.6946 50.5623 28.5463 50.4903 28.4213C50.6365 28.415 50.7784 28.3916 50.9098 28.3472C50.9331 28.4277 50.9628 28.4976 50.9861 28.5548C51.1111 28.8536 51.3907 29.0633 51.7127 29.1036C51.8716 29.1227 52.0263 29.0972 52.1619 29.0315C52.2064 29.1142 52.2657 29.1883 52.3377 29.2498C52.3377 29.2498 52.3419 29.2519 52.3441 29.254C52.2275 29.3006 52.1152 29.379 52.0136 29.5019C51.7614 29.8134 51.7361 30.2096 51.9479 30.5126L51.9585 30.5275C52.0093 30.608 52.1301 30.7987 52.378 30.8707C52.4331 30.8856 52.4924 30.8961 52.5559 30.8961C52.6958 30.8961 52.8462 30.8516 52.9775 30.7351C53.0284 30.7838 53.075 30.8199 53.1089 30.8453C53.1195 30.8538 53.1279 30.8601 53.1385 30.8686C53.3123 31.0148 53.4839 31.0508 53.611 31.0508C53.6555 31.0508 53.6957 31.0466 53.7254 31.0402C54.0517 30.983 54.2 30.716 54.2572 30.6143L54.2699 30.5932C54.2699 30.5932 54.2762 30.5868 54.2974 30.5762C54.4033 30.5169 54.4902 30.4427 54.5601 30.358C54.9309 30.5423 55.3821 30.519 55.7719 30.2944L55.8757 30.2351C56.0389 30.1418 56.2063 30.0444 56.3736 29.9278C56.7486 30.0465 57.1046 30.0062 57.38 29.8113C57.6215 29.6418 57.7719 29.3748 57.8143 29.0464C57.952 29.1078 58.1024 29.1587 58.274 29.182C58.4223 29.2032 58.666 29.1947 58.88 28.9976C58.9626 29.0803 59.06 29.1502 59.1702 29.1968C59.2825 29.2455 59.4011 29.2689 59.5198 29.2689C59.666 29.2689 59.81 29.2328 59.9414 29.1608C60.1003 29.2328 60.2507 29.2477 60.346 29.2561C60.3651 29.2561 60.3841 29.2604 60.4032 29.2625C60.668 29.2985 60.9201 29.1481 61.0155 28.9002L61.0473 28.8175C61.0685 28.7624 61.079 28.7031 61.0812 28.648C61.1129 28.6586 61.1447 28.6692 61.1828 28.6756C61.2316 28.6862 61.2803 28.6904 61.3269 28.6904C61.4774 28.6904 61.6172 28.6417 61.7337 28.5506C61.9689 28.3641 61.99 28.0992 61.9964 27.953C62.0112 27.8513 62.0027 27.7242 61.9328 27.5822C61.9222 27.4784 61.882 27.3301 61.7549 27.2008C61.6383 27.0822 61.4773 27.0165 61.3057 27.0144H61.3015C60.9604 27.0144 60.7464 27.2792 60.6914 27.3576C60.5748 27.5229 60.5367 27.7242 60.5917 27.9128C60.6045 27.9573 60.6235 27.9997 60.6447 28.0399C60.5981 28.0166 60.5515 27.9954 60.5049 27.9721C60.2824 27.8619 60.0515 27.7496 59.8121 27.6479C59.5473 27.5356 59.2211 27.6034 58.9435 27.828C58.9245 27.8429 58.9075 27.8598 58.8906 27.8768C58.8842 27.8704 58.8778 27.8662 58.8715 27.8598C58.8694 27.8556 58.8651 27.8513 58.863 27.8471C58.6427 27.5356 58.3249 27.3513 57.9732 27.328C57.7465 27.3131 57.5262 27.3661 57.327 27.4805C57.3249 27.4254 57.3143 27.3746 57.3037 27.3322C57.2444 27.114 57.0982 26.9805 56.9647 26.9C56.9902 26.7749 56.9775 26.6542 56.9266 26.5355C56.8419 26.3385 56.6639 26.2007 56.4393 26.1584C56.1936 26.1117 55.8461 26.1584 55.6236 26.3745C55.505 26.4889 55.4351 26.6351 55.4203 26.7919C55.4182 26.7919 55.4139 26.7919 55.4118 26.7919H55.397C55.1936 26.8343 55.0284 26.9805 54.9648 27.1775C54.9012 27.3746 54.9478 27.5907 55.0876 27.7433C55.0919 27.7496 55.0982 27.7539 55.1025 27.7602C55.0643 27.7708 55.0262 27.7814 54.9923 27.792C54.9478 27.8047 54.9034 27.8174 54.8589 27.8301C54.8271 27.8386 54.7042 27.8047 54.6597 27.7899C54.3906 27.7136 54.1152 27.5801 53.8483 27.4509C53.7953 27.4254 53.7191 27.3386 53.6449 27.2496C53.7487 27.097 53.8271 26.9317 53.8822 26.7538C54.0347 26.6436 54.3122 26.4296 54.3504 26.0715C54.3906 25.6922 54.1364 25.4168 54.0135 25.2833C53.9013 25.1625 53.8229 25.0629 53.7953 24.976C53.7847 24.9421 53.7741 24.9103 53.7593 24.8786C53.8016 24.8595 53.8398 24.8362 53.8758 24.8065C54.1152 24.94 54.3758 24.8998 54.4796 24.8849C54.4945 24.8828 54.5093 24.8807 54.5199 24.8786C54.8546 24.868 55.1428 24.7006 55.3355 24.4018C55.3589 24.4018 55.38 24.3955 55.4012 24.3933C55.2529 24.8023 55.4754 25.1138 55.7571 25.2345C55.8504 25.2748 55.9478 25.2939 56.0452 25.2939C56.219 25.2939 56.3885 25.2303 56.5262 25.1095C56.8503 25.2218 57.2275 25.1159 57.4584 24.8277C57.4796 24.8023 57.4986 24.7726 57.5156 24.7451C57.5558 24.815 57.6024 24.868 57.6448 24.9082C57.8461 25.0883 58.077 25.082 58.185 25.0714C58.2105 25.0756 58.238 25.0777 58.2634 25.0777C58.2952 25.0777 58.327 25.0756 58.3588 25.0693C58.4711 25.0799 58.6999 25.0841 58.8927 24.9103C58.9753 24.8362 59.1108 24.6709 59.1066 24.3955C59.1045 24.2281 59.0494 24.067 58.9562 23.9314C59.0134 23.9124 59.0706 23.8912 59.1236 23.8657C59.2465 24.0501 59.3863 24.192 59.5431 24.2916C59.4223 24.4484 59.2803 24.7112 59.3842 25.0693C59.4858 25.4168 59.7358 25.6625 60.0748 25.7452C60.132 25.76 60.1914 25.7664 60.2486 25.7664C60.4943 25.7664 60.7549 25.6541 60.9625 25.4888C61.0536 25.5545 61.1341 25.6329 61.2083 25.7388C61.5197 26.1753 62.043 26.455 62.6426 26.508C62.9222 26.5313 62.9286 26.5673 62.9476 26.6796C63.0027 26.9847 63.1553 27.1669 63.3036 27.2792C63.187 27.3089 63.0727 27.3576 62.9604 27.4297L62.9455 27.4403C62.9455 27.4403 62.9434 27.4403 62.9413 27.4424C62.6976 27.436 62.4752 27.5462 62.3396 27.7369C62.1849 27.9573 62.1722 28.2497 62.3036 28.5188C62.5091 28.9383 62.8481 29.0379 63.0324 29.0612C63.2273 29.0845 63.4243 29.1163 63.6086 29.146C63.6595 29.5146 63.9286 29.6651 64.0599 29.7159C64.1616 29.7562 64.2548 29.771 64.3417 29.771C64.6341 29.771 64.8396 29.5909 64.9201 29.521L64.9433 29.5019C64.9921 29.4617 65.026 29.4362 65.0493 29.4193C65.0726 29.4299 65.1044 29.4468 65.1488 29.4723C65.2209 29.5125 65.295 29.5655 65.3671 29.6163C65.6764 29.8388 65.9412 29.7731 66.0705 29.7159C66.2251 29.646 66.4158 29.4871 66.4645 29.1354C66.5069 29.1841 66.5408 29.235 66.5641 29.2943C66.6234 29.4511 66.7251 29.5719 66.8628 29.6545C66.8226 29.6736 66.7823 29.6969 66.7463 29.7265C66.7272 29.7414 66.706 29.7541 66.6848 29.7689C66.545 29.86 66.17 30.1058 66.2103 30.5847C66.2166 30.6631 66.1849 30.7521 66.1298 30.9046L66.1234 30.9195C66.0344 31.161 66.0281 31.3941 66.1043 31.6166C66.223 31.9577 66.509 32.1696 66.8522 32.1696C67.2124 32.1696 67.4984 31.9323 67.5789 31.5636C67.6319 31.3199 67.6806 30.9979 67.5747 30.6504C67.5662 30.6228 67.5535 30.5783 67.5429 30.5402C67.5535 30.5275 67.562 30.5148 67.5726 30.4999C67.581 30.5084 67.5895 30.519 67.5958 30.5275C67.6933 30.6398 67.778 30.7372 67.8013 30.8156C67.8861 31.1271 67.9327 31.4555 67.9836 31.8009C68.0365 32.1675 68.0916 32.5467 68.1933 32.9281C68.1891 32.9769 68.1869 33.0468 68.1954 33.1273C68.2081 33.2205 68.1912 33.3456 68.1721 33.479C68.1445 33.6803 68.1149 33.9071 68.1552 34.1592C68.1615 34.1995 68.1636 34.2185 68.1276 34.3075C68.1085 34.3563 68.0768 34.4135 68.045 34.4728C67.9348 34.6826 67.7738 34.9877 67.8141 35.3881C67.6361 35.4687 67.3374 35.6763 67.3861 36.1594C67.1382 36.1594 66.7463 36.2548 66.598 36.812C66.5323 37.0578 66.3988 37.3036 66.2569 37.5621L66.2294 37.6108C66.2103 37.6447 66.1594 37.7274 66.1001 37.7401C65.7315 37.8227 65.2866 38.2846 65.1425 38.7423C64.7993 38.7508 64.2887 38.8758 64.2146 39.5263C64.2082 39.5793 64.2082 39.6343 64.2103 39.6852C64.168 39.6958 64.1277 39.7085 64.0874 39.7255C63.954 39.7869 63.6023 39.9522 63.5133 40.3738C63.4752 40.5518 63.5175 40.7362 63.6256 40.8824C63.7442 41.0392 63.9286 41.1387 64.132 41.1557C64.1468 41.1557 64.1616 41.1557 64.1764 41.1557C64.2442 41.1557 64.312 41.143 64.3756 41.1197C64.7463 40.982 64.8946 40.6641 64.9433 40.5603C64.9476 40.5539 64.9497 40.5455 64.9518 40.537C64.9709 40.5412 64.99 40.5476 65.0112 40.5497C65.0556 40.5582 65.1001 40.5624 65.1467 40.5624C65.3438 40.5624 65.5451 40.4861 65.7252 40.3378C65.8671 40.2234 66.0153 40.0433 66.098 39.8293C66.242 39.8632 66.3925 39.8929 66.5493 39.9056C66.7484 39.9204 67.1086 39.8738 67.2929 39.3843C67.3162 39.361 67.3353 39.3398 67.3501 39.3229C67.5026 39.1915 67.67 39.0707 67.8479 38.9415C68.0895 38.7656 68.3352 38.5876 68.5662 38.3715C68.6446 39.0686 69.1382 39.2085 69.3564 39.236C69.3903 39.2402 69.4242 39.2424 69.456 39.2424C69.6403 39.2424 69.8119 39.1767 69.9475 39.0559C70.0005 39.0072 70.0577 38.9372 70.1064 38.8461C70.2335 39.0538 70.4369 39.1385 70.6106 39.1746C70.617 39.4309 70.7398 39.7318 71.1932 39.9416C71.5724 40.1196 71.9708 40.0496 72.2843 39.7615C72.3966 39.9352 72.5491 40.0518 72.7207 40.0963C72.7292 40.1408 72.7419 40.181 72.7525 40.2128C72.7864 40.3103 72.886 40.5328 73.1148 40.6514C73.1 40.6874 73.0894 40.7234 73.0788 40.7616C73.0385 40.9184 73.0364 41.0921 73.0957 41.2595C72.869 41.2405 72.6444 41.3061 72.4644 41.4523C72.3817 41.518 72.3161 41.5985 72.2652 41.6854C72.2568 41.6791 72.2462 41.6727 72.2377 41.6663C72.2653 41.5223 72.2441 41.3718 72.1869 41.2383C72.0555 40.9311 71.7822 40.7107 71.4708 40.6641C71.4114 40.6556 70.9559 40.6006 70.7356 41.0752C70.6975 41.0646 70.6572 41.0519 70.6191 41.0413C70.475 41.0031 70.1361 40.9099 69.8437 41.126C69.5598 41.3358 69.5386 41.6769 69.5323 41.8359V41.857C69.5259 41.8931 69.5195 41.9397 69.5174 41.9948C69.4856 41.9927 69.4539 41.9884 69.4221 41.9905C69.1064 42.0032 68.9094 42.2215 68.8098 42.3317C68.7123 42.4397 68.6488 42.5732 68.6255 42.7109C68.4899 42.6135 68.3119 42.5457 68.081 42.5775C67.742 42.6241 67.562 42.8381 67.4603 43.0309C67.3586 42.9949 67.2484 42.9737 67.1276 42.9716C67.0387 42.8614 66.9433 42.7745 66.8607 42.7025C66.9327 42.3995 66.8522 42.0986 66.6234 41.802C66.6679 41.8104 66.7145 41.8189 66.7632 41.821C66.7781 41.821 66.7908 41.821 66.8056 41.821C67.2187 41.821 67.5471 41.5201 67.5768 41.1048C67.5916 40.8972 67.5238 40.7044 67.3861 40.5645C67.2823 40.4586 67.0959 40.3357 66.7823 40.3505C66.7654 40.3505 66.7611 40.3505 66.7442 40.3548H66.7251C66.1404 40.3802 65.9963 40.8209 66.0048 41.0773C66.009 41.2341 66.0599 41.3761 66.1425 41.4926C66.0345 41.4693 65.9009 41.4545 65.7272 41.4396C65.2802 41.4057 65.062 41.4184 64.8756 41.5816C64.7485 41.6918 64.6573 41.8486 64.6277 42.0117C64.6086 42.1092 64.5959 42.1855 64.24 42.2893C64.1849 42.3062 64.1277 42.319 64.0705 42.3338C63.776 42.4058 63.3756 42.5033 63.1002 42.8571C62.8523 43.175 62.6574 43.3763 62.3926 43.461C62.2866 43.4949 62.0451 43.5712 61.8968 43.8361C61.8693 43.8488 61.8227 43.8678 61.7867 43.8827L61.7422 43.9018C61.6829 43.9272 61.6214 43.9462 61.56 43.9674C61.4752 43.995 61.3778 44.0289 61.2761 44.0734C61.2655 44.0056 61.2443 43.9378 61.2104 43.8784C61.1617 43.7089 61.0621 43.5733 60.918 43.4737C60.918 43.4335 60.918 43.3911 60.9138 43.3508C60.954 43.3424 60.9964 43.3297 61.0388 43.3106C61.2549 43.2216 61.418 43.0712 61.5155 42.8826C61.5409 42.8847 61.5642 42.8868 61.5896 42.8868C61.6511 42.8868 61.7146 42.8783 61.7782 42.8593C62.2061 42.7343 62.3502 42.3698 62.4095 42.2151C62.418 42.1961 62.4244 42.1749 62.4328 42.1558C62.4858 42.071 62.5133 41.9736 62.5176 41.874C62.5282 41.5583 62.3989 41.3676 62.2887 41.2638C62.1404 41.1218 61.9349 41.0519 61.7125 41.0688C61.4032 41.0921 61.2273 41.2341 61.1341 41.3485C61.0473 41.4566 61.0049 41.5689 60.9858 41.6727C60.9159 41.6579 60.846 41.6494 60.7697 41.6536C60.1553 41.6875 59.7931 41.9376 59.5791 42.1918C59.2634 42.1706 58.9922 42.2999 58.7719 42.5753C58.7147 42.6474 58.6469 42.6919 58.4965 42.677C57.8545 42.6135 57.3546 42.8847 57.0198 43.1474C56.9838 43.1411 56.9478 43.1368 56.9075 43.1347C56.8228 43.1347 56.6406 43.1496 56.4774 43.2979C56.452 43.2936 56.4266 43.2915 56.3991 43.2894C56.0008 43.264 55.5389 43.2491 55.1025 43.3975C54.7889 43.5034 54.5008 43.6644 54.2572 43.8636C54.1089 43.7259 53.8864 43.6157 53.5686 43.6327C53.4457 43.3042 53.1512 43.0945 52.7614 43.0796C52.4881 43.069 52.2382 43.1601 52.0602 43.336C51.8907 43.5013 51.8017 43.728 51.8059 43.9759C51.8059 43.9844 51.8059 43.9929 51.8059 44.0013C51.4415 44.0543 51.164 44.2281 50.9352 44.3721C50.7975 44.459 50.6789 44.5332 50.5708 44.5671C50.4607 44.601 50.3674 44.6455 50.2848 44.6836C50.2297 44.709 50.1471 44.7472 50.1238 44.7514C49.8929 44.7429 49.3738 44.7239 48.9501 45.118C48.9458 45.118 48.9373 45.1201 48.9373 45.1201C48.6895 45.1667 48.4904 45.226 48.3463 45.3299C48.3209 45.3235 48.2933 45.3193 48.2636 45.3172C48.0984 45.3044 47.9628 45.2282 47.7404 45.0735C47.7404 45.0544 47.7404 45.0311 47.7404 45.012C47.7404 44.9188 47.7404 44.7917 47.7065 44.6497C47.6217 44.3043 47.4565 44.1242 47.27 44.0395C47.1959 43.8678 47.0582 43.7577 46.9205 43.7047C46.5519 43.5627 46.1811 43.8085 46.054 44.0374C46.0243 44.0903 45.9353 44.1369 45.7955 44.2111C45.6811 44.2683 45.554 44.3361 45.4269 44.4315C45.1726 44.6222 44.8697 44.7345 44.5561 44.7557L44.5031 44.7599C44.1387 44.7832 43.6621 44.8107 43.2617 45.1858C43.1579 45.0502 43.0201 44.9506 42.8612 44.9019C42.6494 44.8362 42.4227 44.8637 42.2214 44.9824C41.9947 45.118 41.8634 45.2684 41.7913 45.4146C41.5752 45.4146 41.3782 45.4888 41.2363 45.635C41.2193 45.6519 41.2045 45.6689 41.1918 45.6858C41.1558 45.6901 41.1134 45.6964 41.0859 45.6964C40.7977 45.5418 40.4694 45.6668 40.2978 45.8702C40.2215 45.9613 40.0922 45.9909 39.8168 46.0354C39.7257 46.0503 39.6346 46.0651 39.5456 46.0842L39.5266 46.0884C39.2554 46.1414 39.069 46.2749 38.9715 46.4825C38.9419 46.4846 38.9122 46.4868 38.8973 46.4868C38.6135 46.4995 38.3804 46.5927 38.1855 46.7707C38.1749 46.7792 38.1686 46.7855 38.1622 46.7919C37.6114 46.8597 37.2088 47.1415 36.8508 47.3894C36.694 47.4996 36.5457 47.6034 36.3995 47.6776C36.1855 47.7856 35.9885 47.9106 35.7957 48.0293C35.6432 48.1246 35.4991 48.2136 35.3529 48.2942C35.2703 48.3387 35.1856 48.3831 35.103 48.4255C34.5966 48.6883 34.0246 48.987 33.639 49.5888C33.6093 49.6036 33.5458 49.6269 33.5182 49.6354C33.4568 49.6566 33.3953 49.6757 33.3318 49.6947C32.9462 49.8134 32.317 50.0062 32.0945 50.716L32.0606 50.7351C31.9314 50.8093 31.8276 50.8982 31.7428 50.9682C31.7174 50.9894 31.6941 51.0084 31.6687 51.0275C31.5098 51.1525 31.3573 51.2839 31.2132 51.411C30.978 51.6165 30.7556 51.8094 30.5162 51.964L30.478 51.9873C29.9145 52.3285 29.9696 52.7671 30.0543 53.0002C30.1942 53.3879 30.5586 53.604 31.0204 53.5786C31.3403 53.5617 31.6708 53.4261 31.9568 53.2205C31.9568 53.2311 31.9568 53.2396 31.9526 53.2481C31.8721 53.5765 32.0903 53.8774 32.3361 53.9939C32.6856 54.1613 33.067 54.2588 33.3594 54.3245C33.5564 54.369 33.7449 54.3859 33.9271 54.4007C34.1686 54.4219 34.3784 54.4389 34.5457 54.5194C34.836 54.6571 35.0648 54.619 35.2068 54.5639C35.3127 54.5215 35.4059 54.4537 35.4822 54.3668C35.7491 54.4791 36.014 54.5469 36.2767 54.5702C36.3932 54.7016 36.5648 54.7758 36.7512 54.7609C36.8233 54.7546 36.9461 54.7334 37.069 54.6508C37.1771 54.6465 37.2702 54.6296 37.3423 54.6147C37.3635 54.6105 37.391 54.6063 37.4122 54.602C37.6537 54.7292 37.9122 54.7673 38.1431 54.7037C38.3105 54.6592 38.4567 54.5618 38.5689 54.4262C38.766 54.477 39.1558 54.5554 39.4906 54.2376C39.6452 54.0914 39.8592 53.9812 40.0859 53.8647C40.0859 53.8647 40.0901 53.8625 40.0922 53.8604C40.1452 53.9537 40.213 54.0448 40.2999 54.1338C40.4016 54.2397 40.7596 54.5469 41.2554 54.2397C41.2871 54.2397 41.321 54.2333 41.3592 54.227L41.3973 54.2206C41.7702 54.1528 41.8634 54.1571 41.9523 54.2418C42.0562 54.3414 42.1769 54.3901 42.2892 54.4113C42.3083 54.4431 42.3295 54.4749 42.3549 54.5046C42.4905 54.6592 42.6981 54.727 42.8993 54.6868C43.3972 54.5851 43.8316 54.424 44.2214 54.1973C45.0265 54.2906 45.7573 54.1719 46.448 53.8371C46.5836 53.7714 46.7954 53.7079 47.0327 53.7757C47.2361 53.835 47.4522 53.8414 47.6662 53.7969C47.7488 53.8964 47.859 53.9706 47.9819 54.0087C48.1683 54.066 48.3696 54.0384 48.5454 53.9325C48.7382 53.8625 48.8653 53.7481 48.9373 53.6125C49.0115 53.6189 49.0899 53.6295 49.1704 53.6379C49.4818 53.6761 49.8335 53.7185 50.2127 53.6379C50.3229 53.6146 50.4204 53.5807 50.5051 53.549C50.5306 53.5405 50.5644 53.5278 50.5941 53.5172C50.7106 53.6231 50.8695 53.6782 51.0348 53.674C51.1005 53.674 51.1661 53.6591 51.2254 53.6379C51.2869 53.6803 51.3589 53.7142 51.4437 53.7312C52.1259 53.9579 52.7805 53.8753 53.3885 53.4875C53.4245 53.4642 53.4564 53.4409 53.486 53.4176C53.8504 53.5129 54.1745 53.46 54.4669 53.4112L54.6173 53.3858C55.2126 53.2862 55.7805 53.1887 56.3461 53.1887C56.3165 53.2078 56.2846 53.2248 56.255 53.2438C55.7804 53.5214 55.8609 53.9367 55.897 54.0596C55.9986 54.4029 56.3419 54.6253 56.6957 54.5766C56.7952 54.5618 56.899 54.6296 57.1088 54.7842C57.2295 54.8732 57.3694 54.9749 57.5304 55.0555C58.1109 55.3415 58.6787 55.3818 59.3227 55.1784C59.5939 55.0936 59.8163 55.0724 60.0685 55.1084C60.1024 55.1127 60.1384 55.1211 60.1765 55.1275C60.4244 55.172 60.9117 55.2631 61.274 54.9177C61.6002 55.0661 61.935 55.0555 62.221 54.8902C62.3714 54.9368 62.5366 54.9199 62.6743 54.8415C62.7315 54.8097 62.7824 54.7673 62.8226 54.7186C63.0218 54.7143 63.2167 54.6592 63.382 54.5575C63.5133 54.477 63.7125 54.4664 63.9434 54.4558C64.2336 54.4431 64.5853 54.4262 64.9264 54.2545C65.5451 54.2842 66.1022 54.1359 66.6425 53.9939C66.9433 53.9134 67.2272 53.8392 67.509 53.7969C67.706 53.7693 67.8819 53.71 68.0365 53.6591C68.1848 53.6104 68.3119 53.568 68.4094 53.5659C68.6679 53.5638 68.9687 53.5362 69.2844 53.3646C69.4157 53.4642 69.581 53.5172 69.7484 53.5045C69.9793 53.4875 70.1784 53.3582 70.2864 53.1612C70.3034 53.1591 70.3225 53.1548 70.3394 53.1527C70.4263 53.14 70.5344 53.1231 70.6509 53.0807C70.742 53.0489 70.8648 53.0319 70.9962 53.0171C71.2398 52.9853 71.5513 52.9451 71.85 52.7692C72.1678 52.943 72.4856 52.9175 72.7059 52.8985H72.744C72.9834 52.8773 73.1805 52.7946 73.3394 52.729C73.4559 52.6802 73.5555 52.6378 73.6106 52.6463C73.9411 52.6908 74.2419 52.5637 74.3987 52.3179C74.4241 52.2776 74.4558 52.2162 74.4792 52.1357C74.6042 52.0954 74.7249 52.0488 74.8457 52.0043C75.0067 51.945 75.1614 51.8878 75.3076 51.8475C75.3287 51.8411 75.3965 51.839 75.4452 51.839C75.5533 51.8369 75.7037 51.8327 75.8647 51.7861C75.8478 51.8242 75.8139 51.8856 75.7461 51.9958C75.7206 52.0361 75.6974 52.0763 75.6719 52.1166L75.655 52.1463C75.655 52.1463 75.6486 52.159 75.6444 52.1653C75.5766 52.1166 75.5025 52.07 75.4156 52.034C75.1953 51.9386 74.941 51.9916 74.7758 52.1653C74.6105 52.3391 74.5724 52.5976 74.6783 52.8116C74.7228 52.9006 74.7546 52.998 74.7885 53.1019C74.8732 53.3582 74.9749 53.6718 75.28 53.9155C75.2758 53.9282 75.2715 53.9409 75.2673 53.9537C75.2567 53.9854 75.244 54.0278 75.2313 54.0617C75.0215 54.0893 74.8266 54.1401 74.6529 54.1867C74.4347 54.2439 74.244 54.2948 74.0703 54.2927C73.8902 54.2927 73.7186 54.3414 73.5512 54.4495C72.9856 54.8118 72.314 55.0279 71.4411 55.1275C71.0216 55.1762 70.6996 55.3415 70.4432 55.6445C70.1148 55.4517 69.8098 55.5958 69.6593 55.7335C69.6254 55.7399 69.5449 55.7399 69.492 55.7399C69.4009 55.7399 69.2971 55.7399 69.1848 55.7547L69.0725 55.7695C68.7166 55.8119 68.2357 55.8691 67.8649 56.2865C67.7145 56.2653 67.581 56.278 67.4814 56.2865C67.4369 56.2908 67.3777 56.2971 67.3628 56.295C67.1616 56.2378 66.9561 56.2611 66.7844 56.3607C66.6976 56.4115 66.6234 56.4772 66.5641 56.5599C66.2866 56.4793 66.0281 56.526 65.8395 56.5768C65.7632 56.598 65.6828 56.6128 65.6044 56.6277C65.4518 56.6573 65.2781 56.6912 65.1086 56.7569C65.0239 56.7887 64.9031 56.8078 64.776 56.829C64.5302 56.8692 64.2019 56.9201 63.9074 57.1214C63.8417 57.0875 63.7739 57.062 63.6998 57.0472C63.4688 57.0006 63.2315 57.0641 63.0536 57.2209C63.0303 57.2294 62.954 57.2337 62.8883 57.2379C62.6065 57.2548 62.4159 57.3481 62.2866 57.4646C62.1574 57.4498 62.0091 57.471 61.8396 57.5494C61.543 57.418 61.2379 57.4498 60.9795 57.6426C60.649 57.6532 60.3418 57.7168 60.0452 57.7761C59.7698 57.8312 59.5113 57.8841 59.2613 57.8884C58.9435 57.8947 58.6639 58.0685 58.5198 58.3461C58.4033 58.2825 58.2783 58.238 58.1469 58.2189C57.8313 58.1723 57.5134 58.2698 57.274 58.4901C57.202 58.5558 57.1703 58.5495 57.1364 58.5431C56.6999 58.452 56.3228 58.5474 56.0686 58.6342C56.0495 58.63 56.0283 58.6236 56.0092 58.6173C55.2487 58.399 54.6491 58.8122 54.4521 58.9478C54.1258 59.1724 54.1131 59.5178 54.1089 59.6492C54.1089 59.6598 54.1089 59.6725 54.1089 59.6725C54.0835 59.8314 54.1237 59.9882 54.2127 60.1174C54.1385 60.1005 54.0665 60.0835 53.9923 60.0666L53.8864 60.0412C53.8546 60.0348 53.8229 60.0284 53.7911 60.0263C53.6068 60.0136 53.4627 60.0645 53.3737 60.0941C53.361 60.0984 53.3483 60.1026 53.3356 60.1068L53.3144 60.1132C52.7403 60.2488 52.6555 60.6429 52.6576 60.8633C52.6576 61.1959 52.8398 61.4396 53.1957 61.5922L53.2254 61.6049C53.4246 61.6939 53.6068 61.6918 53.7254 61.6939C53.7402 61.6939 53.755 61.6939 53.7678 61.6939C53.8377 61.732 53.9754 61.7998 54.147 61.7998C54.2254 61.7998 54.3122 61.785 54.4033 61.7447C54.5156 61.6939 54.6555 61.5922 54.7445 61.393C55.0665 61.4883 55.3398 61.393 55.4669 61.3485C55.6003 61.2998 55.6576 61.2849 55.7105 61.2934C55.9055 61.3231 56.0728 61.287 56.1957 61.2595C56.219 61.2553 56.2465 61.2489 56.2677 61.2447C56.5219 61.3612 56.7953 61.2743 56.9838 61.1027C56.9902 61.1027 56.9986 61.1027 57.0071 61.1027C57.0876 61.0985 57.1787 61.1027 57.274 61.1069C57.5706 61.1197 57.9626 61.1345 58.3461 60.9268C58.7274 61.0307 59.0431 60.8739 59.221 60.7849C59.4202 60.6853 59.6447 60.6281 59.8481 60.6281C59.899 60.6281 59.9414 60.6281 59.9816 60.6281C60.3524 60.6281 60.5113 60.5984 60.8397 60.3611C60.882 60.3611 60.9222 60.3611 60.9646 60.3611C61.3333 60.3653 61.7485 60.3696 62.1723 60.2085C62.204 60.2085 62.2379 60.2085 62.2697 60.2085C62.3311 60.2085 62.4011 60.2128 62.4773 60.2085C62.5324 60.2636 62.5875 60.2997 62.6383 60.3272C62.8142 60.4183 63.0112 60.4247 63.2252 60.3442L63.2464 60.3357C63.526 60.2382 63.668 60.0729 63.7336 59.9077C63.9752 59.8314 64.1213 59.7996 64.2633 59.8589C64.723 60.0475 65.3311 60.217 65.973 59.8462C66.0556 59.7975 66.1234 59.7318 66.1721 59.6534C66.2484 59.7043 66.348 59.7466 66.4751 59.7636C66.4751 59.7742 66.4751 59.7848 66.4751 59.7954C66.4857 59.95 66.5344 60.0645 66.5916 60.1513C66.5831 60.1704 66.5747 60.1895 66.5683 60.2085C66.4963 60.1874 66.4222 60.1789 66.3459 60.1831C66.0345 60.2064 65.8756 60.4395 65.8247 60.5179C65.7823 60.5751 65.7421 60.6344 65.7039 60.6938C65.687 60.7192 65.6701 60.7467 65.6552 60.7679C65.5578 60.6662 65.3819 60.5433 65.0959 60.5433C65.0895 60.5433 65.0832 60.5433 65.0768 60.5433C64.6552 60.5518 64.312 60.7997 64.1807 61.1917C64.0896 61.4629 64.1764 61.7702 64.4434 62.1304C64.6171 62.3634 64.8671 62.6304 65.1595 62.73C64.9942 62.8592 64.8353 63.0499 64.7633 63.336C64.6595 63.3318 64.5535 63.3106 64.4349 63.2724C64.3099 63.23 63.9752 63.1178 63.687 63.3614C63.6553 63.3868 63.6235 63.4207 63.5938 63.4589C63.471 63.4843 63.3735 63.5394 63.2993 63.603C63.223 63.5479 63.1468 63.5161 63.079 63.497C62.704 63.3974 62.4328 63.6475 62.3438 63.7301C62.3269 63.7449 62.2718 63.7704 62.2167 63.7937L62.1405 63.8276C62.0303 63.8742 61.8354 63.9589 61.6871 64.139C61.3863 64.0077 61.0727 64.0246 60.7549 64.192C60.5282 64.3107 60.2698 64.3933 59.9986 64.4823C59.6914 64.5819 59.3757 64.6857 59.0642 64.8467C59.0537 64.8467 59.0431 64.8467 59.0325 64.8467C58.7677 64.8531 58.4689 64.8616 58.2698 65.1328C58.221 65.2006 58.1872 65.2684 58.1681 65.3362C58.149 65.3362 58.1321 65.3362 58.1151 65.3383C57.9689 65.351 57.6956 65.421 57.4817 65.7515C57.0664 65.6731 56.7847 65.9168 56.6639 66.0206C56.647 66.0354 56.6279 66.0524 56.6088 66.0672C56.4033 66.2198 56.2465 66.3278 56.0622 66.3511L56.0135 66.3575C55.4775 66.4168 55.147 66.6414 55.0241 67.0292C54.844 67.1542 54.736 67.3343 54.7 67.5695C54.4224 67.5144 54.0898 67.5886 53.7741 68.0081C53.7148 68.0865 53.664 68.1649 53.6173 68.2369C53.4648 68.4721 53.4267 68.506 53.3589 68.5124C53.0008 68.5484 52.7021 68.8578 52.664 69.2307C52.6597 69.2837 52.5962 69.3536 52.4945 69.4659C52.4606 69.504 52.4267 69.5422 52.3928 69.5803L52.3695 69.6057C51.9733 70.0443 52.0729 70.3961 52.2 70.5952C52.2 70.6037 52.2 70.6122 52.2 70.6228C52.2 70.627 52.2 70.6313 52.2 70.6376C52.1407 70.6948 52.0856 70.769 52.0475 70.8664C52.0221 70.93 52.0115 70.9936 52.0072 71.0508C52.003 71.0487 51.9988 71.0444 51.9945 71.0423C51.9013 70.9809 51.7954 70.947 51.6767 70.9491C51.3335 70.9512 51.1428 71.0974 51.0454 71.2203C50.9162 71.3813 50.8695 71.5869 50.9161 71.7988C50.9797 72.0975 51.1026 72.2946 51.2424 72.4238C51.2361 72.4238 51.2318 72.4238 51.2254 72.4238C51.111 72.4238 51.0051 72.4344 50.914 72.445C50.8759 72.4492 50.8377 72.4535 50.7996 72.4556C50.6047 72.4683 50.431 72.5128 50.2763 72.5531C50.0009 72.6251 49.8929 72.6442 49.7806 72.5806C49.5137 72.4302 49.1959 72.445 48.931 72.6188C48.7954 72.7077 48.6853 72.8306 48.609 72.9726C48.5179 72.9557 48.4183 72.9535 48.3124 72.979C48.2319 72.998 48.1365 73.0383 48.0412 73.1124C47.8929 73.0849 47.7552 73.087 47.6472 73.0891C47.59 73.0891 47.5306 73.0891 47.4989 73.087C47.2107 73.0489 46.9395 73.0129 46.698 72.9133C46.4396 72.8052 46.1705 72.801 45.9374 72.8984C45.9353 72.8984 45.9332 72.8942 45.9311 72.8921C45.6641 72.6293 45.3358 72.5149 44.9629 72.5509C44.946 72.5509 44.929 72.5509 44.9099 72.5509C44.7977 72.5467 44.5879 72.5425 44.393 72.6484C44.3591 72.6039 44.321 72.5594 44.2722 72.5192C43.9417 72.2395 43.5731 72.1357 43.2489 72.0424C43.0625 71.9895 42.8845 71.9386 42.7489 71.8623C42.5265 71.7373 42.2447 71.7394 42.018 71.8708C41.7935 71.9979 41.6515 72.2331 41.6473 72.481C41.6473 72.4916 41.6473 72.5043 41.6473 72.5149C41.6558 72.7141 41.7045 72.8984 41.7871 73.0595C41.7828 73.0531 41.7786 73.0468 41.7744 73.0404C41.499 72.5743 41.1261 72.5891 40.9291 72.6399C40.6028 72.7226 40.3147 73.0341 40.41 73.5383C40.4227 73.6104 40.4333 73.6845 40.4418 73.7587C40.4588 73.8901 40.4799 74.049 40.5244 74.2164C40.3803 74.2354 40.2003 74.3032 40.0181 74.4812C40.0075 74.4812 39.9905 74.4749 39.9651 74.4664C39.7639 74.3922 39.5922 74.4007 39.48 74.405C39.4609 74.405 39.4439 74.405 39.4249 74.405C39.1367 74.405 38.9694 74.5512 38.8952 74.638C38.7596 74.7948 38.7088 74.994 38.7427 75.2313C38.7787 75.4813 38.9207 75.6784 39.1304 75.7716C39.2427 75.8204 39.4545 75.8755 39.7088 75.7483C39.7257 75.761 39.7448 75.7759 39.7617 75.7886C39.8062 75.8246 39.8571 75.8691 39.91 75.9178C40.0096 76.0089 40.1219 76.1106 40.2617 76.1996C40.2702 76.2102 40.2787 76.2208 40.2872 76.2293C40.3189 76.2674 40.3634 76.3183 40.4206 76.3713C40.4757 76.42 40.5075 76.509 40.5583 76.6637C40.588 76.7505 40.6198 76.848 40.6643 76.9497C40.8528 77.3735 41.2341 77.4307 41.3782 77.4519C41.3782 77.4519 41.3825 77.4519 41.3846 77.4519C41.5689 77.5642 41.8337 77.7083 42.1409 77.7761C42.2913 77.81 42.4502 77.8672 42.6155 77.9307C42.7765 77.9901 42.946 78.0537 43.1218 78.0981C43.143 78.1066 43.2023 78.1426 43.2426 78.1659C43.4057 78.2655 43.7701 78.488 44.1832 78.3609C44.2637 78.4584 44.3866 78.5707 44.5709 78.6236C44.857 78.7084 45.1408 78.7614 45.4163 78.8143C45.8654 78.9012 46.2891 78.9817 46.6514 79.1788C46.84 79.2805 47.0645 79.3038 47.2552 79.2381C47.2912 79.2487 47.3717 79.2889 47.4247 79.3144C47.4544 79.3292 47.484 79.344 47.5137 79.3589C47.9077 79.5496 48.4268 79.7509 48.9416 79.611C49.1323 79.558 49.2658 79.575 49.4522 79.6746C49.8272 79.8738 50.1979 79.8695 50.4967 79.8674C50.6365 79.8674 50.7678 79.8653 50.8738 79.8844C50.9818 79.9055 51.0877 79.9182 51.181 79.9288C51.4415 79.9606 51.556 79.9818 51.6365 80.0602C51.9606 80.3696 52.2763 80.2954 52.4182 80.234C52.4458 80.2361 52.4966 80.2488 52.5348 80.2552C52.611 80.2721 52.7042 80.2912 52.808 80.2996C52.8398 80.3018 52.8928 80.3124 52.9436 80.323C53.1216 80.359 53.4373 80.4247 53.7551 80.2785C53.7742 80.2891 53.7932 80.2997 53.8122 80.3102C53.8991 80.3526 53.9923 80.3738 54.0855 80.3738C54.1639 80.3738 54.2445 80.359 54.3207 80.3293C54.4309 80.2869 54.5241 80.217 54.6046 80.1195C54.9542 80.2848 55.3482 80.2891 55.6915 80.1344C56.005 80.2679 56.3101 80.2488 56.5453 80.234C56.6427 80.2276 56.7359 80.2213 56.8122 80.2297C57.0114 80.2509 57.1639 80.2085 57.2783 80.1365C57.4838 80.2107 57.9033 80.3484 58.3016 80.0581C58.613 80.0433 58.9054 79.9882 59.185 79.9331C59.3799 79.8949 59.5663 79.8589 59.7464 79.8398C59.9096 79.8229 60.0494 79.7551 60.1617 79.6386C60.1681 79.6386 60.1744 79.6386 60.1786 79.6386C60.1935 79.6386 60.2401 79.6449 60.2718 79.6513C60.4307 79.6767 60.6998 79.7212 60.9816 79.5771C61.1341 79.4987 61.3333 79.4733 61.56 79.4436C61.6617 79.4309 61.7633 79.4161 61.8629 79.3991C62.0176 79.3716 62.2633 79.3271 62.4646 79.1343C62.4773 79.1343 62.4879 79.1364 62.5006 79.1385C62.6722 79.1491 62.8396 79.0877 62.973 78.9669C63.0133 78.9563 63.0621 78.9393 63.1108 78.9118C63.1341 78.9075 63.1913 78.9118 63.2337 78.9118C63.3481 78.916 63.4921 78.9203 63.6532 78.88C63.8989 78.8207 64.1256 78.7211 64.3269 78.5897C64.3438 78.594 64.3586 78.5961 64.3713 78.5982C64.4942 78.6173 64.6213 78.5961 64.7315 78.5367C64.8713 78.4605 64.9858 78.3736 65.0875 78.2994C65.2569 78.1723 65.3035 78.1469 65.3417 78.1532C65.7145 78.221 65.954 78.0303 66.0959 77.9138L66.1192 77.8947C66.2399 77.7973 66.3141 77.6574 66.3289 77.5091C66.7971 77.3078 67.2802 77.0747 67.7887 76.8056C68.3946 76.4857 68.9856 76.1446 69.5979 75.7653C69.7165 75.6911 69.8373 75.6233 69.9581 75.5534C70.1657 75.4347 70.3776 75.314 70.5937 75.1656C70.8606 74.9813 71.2017 74.8626 71.528 74.8393C71.9199 74.8118 72.2546 74.5067 72.3606 74.0808C72.369 74.0448 72.3754 74.0087 72.3775 73.9727C72.5682 73.9282 72.7779 73.8117 72.9623 73.5616C73.047 73.4472 73.1805 73.3519 73.3351 73.2396C73.3966 73.1951 73.4601 73.1506 73.5194 73.104L73.547 73.0828C73.9368 72.784 74.3414 72.4747 74.6953 72.0975C74.8351 71.9492 74.9982 71.8136 75.1698 71.6695C75.4664 71.4216 75.7715 71.1652 76.0215 70.8071C76.1867 70.8241 76.6338 70.8601 76.8139 70.4448C76.8753 70.3028 76.8817 70.163 76.8372 70.0253C76.9664 69.9278 77.1274 69.7773 77.1994 69.5294C77.4516 69.4193 77.6401 69.2328 77.7312 69.0018C77.7651 68.9129 77.8626 68.8111 77.977 68.6967C78.1422 68.5272 78.3414 68.3238 78.46 68.0293C78.4981 67.9996 78.5426 67.9636 78.5829 67.917L78.6465 67.8471C78.9664 67.489 79.3265 67.0821 79.5172 66.544C79.9112 66.4126 80.138 66.082 80.1252 65.6456C80.2947 65.5502 80.4324 65.3892 80.4918 65.2091C80.5617 64.9972 80.7036 64.7874 80.8519 64.5649C81.0447 64.2768 81.2629 63.9505 81.3773 63.5479C81.3943 63.5309 81.4112 63.5161 81.426 63.4991C81.5341 63.389 81.7608 63.1623 81.7566 62.7872C81.7566 62.7872 81.7629 62.7703 81.7947 62.7406C82.051 62.5033 82.2078 62.1918 82.2502 61.8358C82.2756 61.6155 82.3751 61.3866 82.5701 61.09C82.8179 60.715 82.9493 60.3208 82.9684 59.8928C83.2925 59.6746 83.4366 59.2996 83.3285 58.9245C83.3455 58.8949 83.373 58.8546 83.3921 58.8249C83.4514 58.7359 83.5277 58.6236 83.5828 58.4859C83.7607 58.3863 83.8921 58.2211 83.9514 58.0198C84.0149 57.7952 83.9789 57.5557 83.8582 57.3735C83.8688 57.3396 83.8773 57.3057 83.8858 57.2697C83.9006 57.1998 83.9387 57.1171 83.9832 57.0197C84.0828 56.7993 84.2205 56.4963 84.1887 56.1085C84.1612 55.7674 84.2565 55.422 84.4302 55.2313C84.5065 55.1466 84.7628 55.0364 85.1463 54.9961C85.4154 54.9665 85.7268 54.9156 86.0297 54.6825C86.0552 54.6635 86.0785 54.6423 86.1018 54.6211C86.6272 54.5363 87.1547 54.3901 87.7077 54.1719C87.7797 54.1444 87.8496 54.1147 87.9195 54.0829C88.1314 53.9918 88.3157 53.9155 88.5106 53.8943C88.7521 53.8689 88.9513 53.7693 89.1123 53.6909C89.2267 53.6358 89.3348 53.5829 89.4005 53.5829C89.4047 53.5829 89.4047 53.5829 89.4068 53.5829C89.7055 53.5829 89.911 53.3922 90.0318 53.2565C90.4534 53.1527 90.803 53.0531 91.1313 52.9472C91.3051 52.8921 91.4491 52.8116 91.5762 52.7417C91.6716 52.6887 91.7521 52.6442 91.8241 52.6209C91.9004 52.5955 91.9872 52.5743 92.0783 52.551C92.3855 52.4726 92.7563 52.3772 93.072 52.089C93.4491 52.07 93.7859 51.9132 94.0783 51.6229C94.5825 51.6038 94.9745 51.3729 95.2944 51.1843C95.4257 51.1059 95.5507 51.0339 95.6694 50.983C95.716 50.9618 95.7795 50.9427 95.8473 50.9216C96.0338 50.8643 96.2647 50.7902 96.4702 50.6164C96.6015 50.5041 96.7816 50.4342 96.9892 50.3516C97.1227 50.2986 97.2604 50.2456 97.4045 50.1736C97.5062 50.1227 97.6121 50.074 97.718 50.0274C98.0316 49.8854 98.3875 49.7244 98.6841 49.4617C98.7561 49.3981 98.8854 49.3515 99.0337 49.2985C99.2625 49.218 99.5549 49.1142 99.7964 48.8747C99.8006 48.8747 99.8049 48.8747 99.8112 48.8747H99.8303C100.379 48.8578 100.557 48.5315 100.614 48.3069C100.803 48.2878 100.94 48.1988 101.019 48.148C101.025 48.1437 101.034 48.1374 101.04 48.1331C101.311 48.0102 101.525 47.8407 101.716 47.6903C101.832 47.5992 101.943 47.5123 102.048 47.4487C102.616 47.1118 103.106 46.7559 103.538 46.366C103.678 46.4253 103.839 46.4274 103.985 46.366C104.216 46.2685 104.354 46.0312 104.328 45.7833C104.495 45.6498 104.599 45.4782 104.673 45.3532L104.686 45.3299C104.716 45.279 104.743 45.226 104.771 45.1709C104.779 45.154 104.79 45.1349 104.798 45.118C105.449 44.7917 105.733 44.2302 105.887 43.8361C105.894 43.8234 105.917 43.7916 105.936 43.7661C105.972 43.7153 106.008 43.6666 106.038 43.6136C106.063 43.5712 106.11 43.5161 106.156 43.4589C106.305 43.283 106.508 43.0415 106.561 42.6516C106.574 42.552 106.58 42.4524 106.584 42.3677C106.597 42.1155 106.612 42.0816 106.644 42.0626C106.951 41.8782 107.059 41.4841 106.898 41.1472C106.853 41.054 106.843 40.9396 106.94 40.6789L106.942 40.6811ZM61.0261 27.6373C61.1362 27.5568 61.2739 27.5229 61.3989 27.5462C61.4816 27.5632 61.613 27.6352 61.6977 27.7729C61.6935 27.8111 61.6871 27.8492 61.6744 27.8852L61.4159 27.8768C61.4413 27.8323 61.3693 27.7878 61.3587 27.7263C61.3481 27.6712 61.3799 27.5759 61.293 27.5759C61.2443 27.5759 61.1807 27.6331 61.1468 27.6797C61.0981 27.7496 61.1553 27.7984 61.2147 27.8238C61.2697 27.8471 61.3057 27.8662 61.293 27.934C61.2824 27.9933 61.1108 28.0696 61.2867 28.1056C61.418 28.131 61.4138 27.9997 61.418 27.8746L61.6278 27.9891C61.6278 27.9891 61.6193 28.0018 61.615 28.0081C61.5557 28.0908 61.4286 28.1459 61.2951 28.1459H61.2909C61.1002 28.1459 60.9392 28.0314 60.8544 27.8895C60.8544 27.8874 60.8544 27.8852 60.8544 27.881C60.8735 27.8153 60.9223 27.7136 61.0282 27.6331L61.0261 27.6373ZM52.7318 44.1836C52.7509 44.1836 52.7699 44.1836 52.789 44.1836C52.7784 44.1899 52.7635 44.1942 52.7529 44.1984C52.736 44.1899 52.719 44.1814 52.7021 44.173C52.7127 44.1751 52.7233 44.1772 52.7318 44.1793V44.1836ZM84.9429 46.5101C84.8582 45.8935 84.7967 45.2388 84.7607 44.5607C84.748 44.3276 84.6845 44.1263 84.6273 43.9462C84.551 43.7068 84.5256 43.5987 84.5658 43.5076C84.6145 43.3975 84.6505 43.2216 84.5573 43.0055L84.3285 42.1325C84.1124 41.3083 83.89 40.4586 83.6612 39.6216C83.6188 39.4648 83.5489 39.3314 83.4917 39.2254C83.4641 39.1746 83.4239 39.0983 83.4196 39.0834C83.3857 38.6088 83.1866 38.2444 83.0044 37.9244C83.2586 37.9414 83.5214 37.9647 83.7777 38.0028C83.9853 38.0325 84.1696 38.0071 84.3179 37.9859C84.4281 37.971 84.5213 37.9562 84.5743 37.9732C84.6527 37.9965 84.731 38.0261 84.8094 38.0537C85.0658 38.1469 85.3751 38.2613 85.7332 38.2507C85.9959 38.488 86.3391 38.5453 86.659 38.4054C87.0212 38.6194 87.3984 38.6109 87.6886 38.6046H87.7183C87.7649 38.6046 87.8496 38.6003 87.8729 38.6067C88.2754 38.791 88.6738 38.8631 89.0615 38.933C89.1949 38.9563 89.3263 38.9796 89.4597 39.0093C89.6059 39.0411 89.7627 39.1046 89.9301 39.1724C90.0805 39.2339 90.2352 39.2953 90.4026 39.3462C90.9915 39.5221 91.5572 39.8251 92.1334 40.2743C92.1673 40.2997 92.1991 40.3293 92.2309 40.3569C92.358 40.4692 92.5338 40.6196 92.8029 40.7129C92.8198 40.7192 92.8664 40.7637 92.8982 40.8612C92.9448 41.0053 92.9216 41.1493 92.8771 41.2108C92.7796 41.3464 92.7034 41.482 92.6271 41.6134C92.5233 41.7977 92.4321 41.9566 92.3156 42.0583C91.5783 42.7046 90.9068 43.2809 90.1695 43.7873C89.7309 44.0882 89.231 44.3912 88.5954 44.7429C88.1611 44.9824 87.7225 45.2112 87.2882 45.4189C87.1886 45.4655 87.0996 45.5184 87.0191 45.5651C86.8623 45.6562 86.7628 45.7134 86.6802 45.7134C86.6759 45.7134 86.6696 45.7134 86.6653 45.7134C86.4725 45.7134 86.2861 45.8045 86.1654 45.9549C86.0552 46.0927 85.873 46.1562 85.5827 46.2495C85.3815 46.3151 85.159 46.3851 84.9429 46.508V46.5101ZM77.9812 59.8865C77.9812 59.8865 77.977 59.8865 77.9748 59.8865C77.9537 59.8865 77.9346 59.8865 77.9155 59.8822L78.1782 59.6873C78.1803 59.7403 78.1719 59.7805 78.1549 59.8081C78.1083 59.8441 78.049 59.8738 77.9812 59.8865ZM74.7609 59.9585C74.7461 59.9712 74.7185 59.9882 74.6804 60.003C74.6486 60.0136 74.6169 60.0221 74.5851 60.0242L74.7503 59.8801C74.7567 59.9077 74.7609 59.9352 74.7609 59.9585ZM74.4432 59.5708C74.4707 59.575 74.5279 59.592 74.5914 59.6407C74.6444 59.681 74.6826 59.7276 74.7101 59.7784L74.2758 59.6958C74.2927 59.6513 74.3648 59.5856 74.4432 59.5729V59.5708ZM80.4981 43.2958C80.4621 43.4038 80.4091 43.5076 80.3392 43.6093C80.3562 43.5267 80.3604 43.4398 80.3561 43.3508C80.407 43.3339 80.4536 43.3169 80.4981 43.2958ZM79.8519 44.2302C79.7757 44.3658 79.7184 44.512 79.6782 44.6667C79.3858 44.6794 79.1401 44.7535 78.9537 44.8828C78.9748 44.8489 78.996 44.815 79.0172 44.7832L79.0278 44.7662C79.2333 44.4421 79.3159 44.3467 79.4663 44.3319C79.6062 44.3192 79.7354 44.2853 79.8498 44.2281L79.8519 44.2302ZM78.1782 59.6873L77.9685 59.6958C78.0278 59.6598 78.0766 59.6089 78.1189 59.5538C78.1359 59.6026 78.1528 59.6513 78.1782 59.6873ZM78.5998 58.4033L78.2269 58.2401C78.2651 58.2168 78.3117 58.1999 78.3647 58.1999C78.5024 58.1999 78.5702 58.2867 78.5998 58.4012C78.5447 58.5283 78.5024 58.6618 78.3329 58.6321C78.2502 58.6173 78.1761 58.5791 78.1401 58.5156L78.5998 58.4012V58.4033ZM77.9071 45.7536C78.0067 45.635 78.1019 45.5015 78.1761 45.3511C78.2227 45.3553 78.2693 45.3574 78.3181 45.3511C78.4537 45.3383 78.5638 45.2896 78.657 45.2197C78.6358 45.2621 78.6168 45.3087 78.6019 45.3553C78.5278 45.5905 78.3986 45.6435 77.924 45.7494L77.9071 45.7536ZM76.6168 41.6981L76.5893 41.4947C76.6592 41.446 76.7588 41.429 76.8139 41.3549C76.8732 41.2765 76.9601 41.3422 77.0046 41.3909C77.0914 41.482 77.0999 41.5816 76.9537 41.6282C76.8499 41.6621 76.7228 41.5901 76.6168 41.6981C76.5533 41.7066 76.5236 41.6409 76.5194 41.6049L76.6168 41.6981ZM73.6889 42.9504C73.6635 42.9398 73.6381 42.9292 73.6106 42.9122C73.6169 42.9122 73.6232 42.9122 73.6296 42.9144C73.6529 42.9186 73.6762 42.9228 73.6995 42.9313C73.6953 42.9377 73.691 42.944 73.6868 42.9504H73.6889ZM66.598 61.893L66.6276 61.9036C66.6022 61.9397 66.5853 61.9799 66.5831 62.0223C66.581 62.0626 66.5874 62.1092 66.6043 62.1516C66.5641 62.177 66.526 62.2066 66.4921 62.2384C66.4709 62.2172 66.4497 62.196 66.4306 62.1706C66.4221 62.1579 66.4158 62.1431 66.4073 62.1304C66.4751 62.0498 66.5365 61.9693 66.598 61.8909V61.893ZM67.4603 61.6091C67.6234 61.6091 67.812 61.5604 67.9899 61.393C68.3056 61.0985 68.3925 60.6705 68.2081 60.3293C68.1319 60.1895 68.0302 60.0962 67.9285 60.0306C67.992 59.8992 68.0026 59.7678 68.0026 59.7043C68.0026 59.6004 67.9814 59.5008 67.9412 59.4119C68.1064 59.4034 68.2632 59.3589 68.403 59.2784C68.4348 59.2593 68.5153 59.2551 68.6085 59.2508L68.6742 59.2466C68.7251 59.2423 68.7759 59.2423 68.8268 59.2402C68.9666 59.236 69.1276 59.2318 69.3034 59.1979C69.4496 59.4839 69.725 59.611 69.9729 59.6047C70.2631 59.6004 70.6106 59.4267 70.7271 58.9584C71.1148 58.9203 71.3309 58.7042 71.4517 58.4986C71.5279 58.4245 71.6063 58.4202 71.9305 58.4647C72.011 58.4753 72.1 58.488 72.1932 58.4965C72.0576 58.6491 71.9199 58.8249 71.8203 59.0559C71.7716 59.1682 71.689 59.2657 71.5915 59.3271C71.3521 59.4775 71.1233 59.6386 70.9051 59.7954C70.6932 59.9458 70.4941 60.0878 70.2864 60.217C70.0703 60.3526 69.8437 60.4776 69.6043 60.609C69.3055 60.7743 68.9962 60.9438 68.6954 61.143C68.6742 61.1578 68.6191 61.179 68.5747 61.1981C68.4009 61.2701 68.1086 61.393 67.937 61.7023C67.9221 61.7172 67.8628 61.7511 67.8204 61.7765C67.7569 61.8125 67.6848 61.8549 67.6086 61.91C67.562 61.9439 67.5217 61.9714 67.4857 61.9948C67.4984 61.8591 67.4751 61.7257 67.4179 61.607C67.4327 61.607 67.4454 61.6112 67.4603 61.6112V61.6091ZM65.6001 71.8221L65.687 72.231L65.6086 71.8178C65.6489 71.803 65.6955 71.7987 65.7442 71.8072C65.8544 71.8263 66.026 71.8178 66.0111 72.0043C65.9942 72.1971 65.8247 72.2013 65.687 72.231C65.4984 72.267 65.4942 72.0912 65.4878 72.0085C65.4815 71.9153 65.5281 71.8496 65.6001 71.8221ZM64.8798 66.1753C64.8819 66.0376 64.9328 65.921 65.0599 65.9274C65.1404 65.9316 65.1891 65.9761 65.2209 66.0312C65.1658 66.0905 65.1234 66.1562 65.0916 66.2282L64.8904 66.2494C64.8861 66.2261 64.8819 66.2028 64.8819 66.1732L64.8798 66.1753ZM64.9116 66.3088L65.0768 66.2643C65.062 66.3066 65.0493 66.349 65.0429 66.3935C64.9878 66.3808 64.9413 66.3554 64.9137 66.3088H64.9116ZM66.759 61.696C66.867 61.6918 66.9793 61.7384 67.0577 61.8189C67.0958 61.8591 67.1616 61.9439 67.1531 62.0604C67.1531 62.071 67.1488 62.0816 67.1467 62.0943C67.1382 62.0922 67.1319 62.0901 67.1234 62.088C67.0471 62.0626 66.9666 62.0562 66.8861 62.0626C66.8861 62.0392 66.8903 62.0159 66.9031 61.999C66.9369 61.8973 66.9031 61.8019 66.8141 61.8019C66.7696 61.8019 66.7293 61.8168 66.6933 61.838L66.6573 61.8104C66.687 61.7723 66.7166 61.7341 66.7463 61.6981C66.7484 61.6981 66.7505 61.6981 66.7526 61.6981L66.759 61.696ZM63.3099 24.7917C63.3862 24.7726 63.454 24.8023 63.4794 24.8849L63.2252 24.8447C63.2252 24.8341 63.2273 24.8214 63.2294 24.8108C63.257 24.8044 63.2845 24.8002 63.3099 24.7938V24.7917ZM63.1849 24.9887C63.1849 24.9887 63.1891 24.976 63.1913 24.9697L63.4794 24.8828C63.4582 25.0163 63.3692 25.0714 63.2591 25.0905C63.2146 25.0989 63.168 25.0989 63.1319 25.082C63.151 25.0523 63.1701 25.0205 63.1828 24.9866L63.1849 24.9887ZM47.6302 24.8235C48.1238 25.046 48.5899 24.9697 48.967 24.9082L49.0518 24.8955C49.0857 24.8892 49.1874 24.8743 49.2276 24.8764C49.4352 25.0523 49.6895 25.1116 49.9522 25.0502C49.9267 25.3172 50.02 25.5545 50.1259 25.7431C49.9712 25.8977 49.8505 26.0863 49.7658 26.3067C49.7636 26.3109 49.7594 26.3152 49.7551 26.3194C49.5136 26.1054 49.2424 26.0461 49.0624 26.0079C49.0009 25.9952 48.9416 25.9825 48.9077 25.9677C48.823 25.9338 48.6365 25.8596 48.4077 25.8596C48.2996 25.8596 48.1832 25.8766 48.0645 25.9189C47.9332 25.8766 47.8061 25.8554 47.7001 25.8384C47.626 25.8257 47.4988 25.8045 47.4713 25.7854C47.4713 25.7854 47.4692 25.7812 47.4628 25.7727C47.3802 25.6223 47.2404 25.5142 47.0751 25.4591C47.3167 25.296 47.4988 25.0841 47.6259 24.8192L47.6302 24.8235ZM69.6233 38.2973C69.6233 38.2973 69.634 38.2952 69.6403 38.2931C69.6361 38.2973 69.6318 38.3037 69.6276 38.3101C69.6276 38.3058 69.6255 38.3016 69.6233 38.2973ZM70.136 38.0134C70.136 38.0134 70.1466 38.0134 70.1509 38.0134C70.1488 38.0177 70.1445 38.024 70.1403 38.0304C70.1403 38.024 70.136 38.0198 70.136 38.0134ZM38.5372 47.8746C38.5817 47.8598 38.624 47.8407 38.6643 47.8217L38.6897 47.8937C38.6346 47.8958 38.5753 47.8937 38.5372 47.8746ZM38.9101 47.756C38.9101 47.9149 38.766 47.864 38.6897 47.8937L38.6834 47.8111C38.7617 47.7687 38.8253 47.7221 38.874 47.6818C38.8952 47.7009 38.9079 47.7263 38.9079 47.756H38.9101ZM33.3445 51.1483C33.4187 51.125 33.4441 51.197 33.4589 51.2267C33.4504 51.3877 33.3763 51.4767 33.2746 51.5212C33.2555 51.4597 33.228 51.4068 33.1962 51.3623L33.4589 51.2288L33.1856 51.214C33.2365 51.1885 33.2915 51.1673 33.3466 51.1504L33.3445 51.1483ZM67.2717 59.3907C67.3035 59.3822 67.3374 59.3779 67.3713 59.3716C67.3882 59.3801 67.4031 59.3907 67.42 59.4013C67.5514 59.4987 67.6043 59.6365 67.6107 59.7233C67.6149 59.7721 67.6064 59.8208 67.5895 59.8674C67.5407 59.8229 67.4857 59.7848 67.4263 59.7593C67.4327 59.7424 67.4369 59.7233 67.4369 59.6979C67.4369 59.5644 67.3268 59.6026 67.259 59.592C67.1446 59.5941 67.045 59.6089 67.0429 59.736C66.9899 59.7509 66.9391 59.7721 66.8904 59.8017C66.8883 59.8017 66.8861 59.806 66.884 59.8081C66.8777 59.7848 66.8734 59.7593 66.8713 59.736C67.0916 59.6682 67.2124 59.522 67.2759 59.3885L67.2717 59.3907ZM51.7361 72.0763C51.7106 72.0848 51.6916 72.0912 51.6767 72.0912V72.0467C51.6937 72.0573 51.7127 72.0678 51.7339 72.0763H51.7361ZM51.8822 76.1742C51.8822 76.1742 51.8822 76.1763 51.8822 76.1785L51.7148 75.9814C51.8314 75.9708 51.9394 75.975 51.8843 76.1742H51.8822ZM51.6449 76.3776C51.6449 76.3776 51.6322 76.3734 51.628 76.3713L51.8928 76.3797C51.8759 76.3988 51.8589 76.4158 51.842 76.4306C51.7784 76.42 51.7106 76.3967 51.647 76.3776H51.6449ZM44.8718 74.1931C45.0074 74.2333 45.1578 74.2333 45.2913 74.1931C45.5582 74.3965 45.8421 74.5003 46.0942 74.5935C46.1451 74.6126 46.198 74.6317 46.2489 74.6507C46.2616 74.655 46.2764 74.6613 46.2891 74.6656C46.4247 74.8457 46.5836 74.9728 46.7489 75.066C46.5942 75.1169 46.4056 75.2313 46.2552 75.4941C46.251 75.4962 46.2446 75.5004 46.2404 75.5025C46.2171 75.4962 46.1938 75.4919 46.1684 75.4877C46.0243 75.4135 45.8824 75.4114 45.7955 75.4178C45.7764 75.4072 45.751 75.3924 45.7319 75.3796C45.7065 75.3627 45.6811 75.3479 45.6535 75.3309L45.6409 75.3245C45.4968 75.2398 45.232 75.0809 44.8549 75.1699C44.7722 75.1889 44.7235 75.1932 44.696 75.1932C44.679 75.1932 44.6726 75.1932 44.6726 75.1932C44.6684 75.1911 44.6218 75.1572 44.5434 74.994L44.5286 74.9643C44.4523 74.8033 44.2701 74.424 43.8019 74.3499L43.6959 74.3329C43.5434 74.3075 43.3739 74.2778 43.1896 74.2736C43.1917 74.2333 43.1917 74.1846 43.1875 74.1337C43.1642 73.9049 43.0879 73.7418 42.9947 73.6231C43.0329 73.6146 43.071 73.604 43.1112 73.5913C43.1218 73.6061 43.1303 73.621 43.1409 73.6358C43.1748 73.6867 43.215 73.7502 43.2743 73.818C43.4926 74.0681 43.7108 74.138 43.8866 74.138C44.0498 74.138 44.1769 74.0786 44.2341 74.0447C44.2807 74.0193 44.321 73.9854 44.3591 73.9515C44.4926 74.0511 44.662 74.1316 44.8697 74.1931H44.8718ZM35.1877 29.1672C35.1962 29.1968 35.2067 29.2265 35.2194 29.254L35.0479 29.2201C35.0987 29.2011 35.1474 29.1841 35.1877 29.1672ZM35.5203 29.3176C35.4101 29.4235 35.2597 29.468 35.1135 29.4553L35.2851 29.3515C35.2957 29.3621 35.3063 29.3727 35.3212 29.3812C35.372 29.4151 35.3805 29.3473 35.3911 29.2879C35.3593 29.235 35.3402 29.1714 35.3169 29.1078C35.4398 29.0421 35.5246 28.9595 35.586 28.879C35.603 28.8875 35.6199 28.8938 35.6368 28.9044C35.6517 28.9129 35.6644 28.9235 35.675 28.9341C35.6792 29.076 35.6262 29.2159 35.5224 29.3176H35.5203ZM50.164 29.0739C50.092 29.1544 49.9861 29.2032 49.8844 29.2074C49.7149 29.2116 49.6026 29.1142 49.5624 29.0697C49.4734 28.9765 49.4289 28.8493 49.4395 28.7307L49.7064 28.7561C49.6958 28.7858 49.6916 28.8197 49.6937 28.8557C49.6979 28.9362 49.7001 29.0548 49.8145 29.0337C49.9416 29.0104 49.9628 28.8705 50.0094 28.7836C50.02 28.6607 49.9183 28.6353 49.8653 28.6353C49.8314 28.6353 49.8018 28.6459 49.7764 28.6607L49.5475 28.54C49.592 28.5082 49.6471 28.4806 49.7149 28.47C49.842 28.4467 49.9797 28.4828 50.0878 28.5654C50.2085 28.6565 50.2551 28.7794 50.2657 28.8408C50.2657 28.9192 50.2276 29.004 50.1661 29.0718L50.164 29.0739ZM58.4605 24.5777C58.3948 24.6413 58.3058 24.673 58.2147 24.6709C58.096 24.6667 57.9562 24.5946 57.9541 24.4039C57.9541 24.3319 57.9753 24.2323 58.0389 24.1391L58.0579 24.1709C58.0092 24.2196 57.9796 24.2895 57.9817 24.37C57.9838 24.5713 58.1554 24.4569 58.2529 24.4951C58.3418 24.4421 58.5282 24.5734 58.5261 24.3933C58.5261 24.3022 58.4689 24.209 58.3884 24.1518L58.4202 24.0692C58.5155 24.1687 58.5516 24.2874 58.5537 24.3616C58.5537 24.44 58.5219 24.5162 58.4626 24.5734L58.4605 24.5777ZM64.6277 40.6069C64.6107 40.6895 64.562 40.7468 64.5345 40.7679C64.3523 40.8357 64.1447 40.7934 64.0069 40.6556C63.8608 40.5094 63.8184 40.2891 63.8947 40.0984C63.9074 40.0857 63.9328 40.0624 63.9731 40.0475L64.1044 40.3993C64.0874 40.4247 64.0747 40.4544 64.0663 40.4883C64.0557 40.5349 64.1086 40.5772 64.1722 40.5815C64.2993 40.5349 64.3692 40.4268 64.4222 40.3145C64.4455 40.2637 64.3819 40.2107 64.3247 40.2361C64.2802 40.2573 64.2336 40.2806 64.1934 40.3103L64.2167 40.0115C64.2442 40.0136 64.2717 40.02 64.2972 40.0263C64.3713 40.1725 64.4836 40.2997 64.6256 40.3929C64.6404 40.4628 64.6404 40.5349 64.6256 40.6069H64.6277ZM69.1276 38.2592C69.1276 38.291 69.1339 38.3228 69.1382 38.3524H69.0746C69.0831 38.3291 69.1 38.2952 69.1276 38.2592ZM66.8014 40.6726C66.8014 40.6726 66.812 40.6726 66.8162 40.6726C66.9645 40.679 67.1361 40.8315 67.1425 41.037C67.1488 41.2171 67.0217 41.3803 66.8798 41.4523L66.8501 41.2362C66.9391 41.2171 66.9984 41.1515 67.0047 41.0582C67.0132 40.9311 66.9115 40.9099 66.8056 40.9163C66.706 40.929 66.5662 40.8972 66.5705 41.0561C66.5747 41.1748 66.6721 41.2405 66.7886 41.2447C66.8014 41.2447 66.8099 41.2426 66.8226 41.2405L66.8332 41.4735C66.8226 41.4778 66.8098 41.482 66.7992 41.4841C66.7442 41.4756 66.6489 41.4439 66.5641 41.3549C66.4751 41.2616 66.4264 41.1366 66.4348 41.018C66.4476 40.8315 66.617 40.6726 66.8014 40.6726ZM61.9964 41.963C62.0134 41.9884 62.026 42.016 62.0366 42.0414C61.9731 42.1304 61.8799 42.1961 61.7994 42.2045C61.7909 42.2045 61.7782 42.2045 61.7697 42.2045C61.846 42.1113 61.8756 41.9821 61.9307 41.8825C61.9561 41.9079 61.9795 41.9333 61.9985 41.963H61.9964ZM61.5409 41.8422C61.5452 41.9354 61.5748 42.0435 61.543 42.124C61.5027 42.0329 61.4477 41.9503 61.3778 41.8825C61.3736 41.8634 61.3714 41.8464 61.3714 41.838L61.5388 41.8422H61.5409ZM52.7529 43.6496C52.7529 43.6496 52.7466 43.6496 52.7424 43.6496C52.7382 43.6496 52.7339 43.6496 52.7297 43.6496C52.7381 43.6454 52.7466 43.6411 52.7529 43.6369V43.6496ZM57.4923 59.7021C57.4457 59.7064 57.3969 59.6937 57.3567 59.6704C57.4923 59.6492 57.6215 59.6047 57.7465 59.5369C57.6829 59.6195 57.6109 59.6915 57.4923 59.7V59.7021ZM51.4776 71.7034C51.4839 71.7331 51.4924 71.7606 51.5009 71.7903L51.4183 71.9153C51.4183 71.9026 51.4161 71.8899 51.4161 71.8793C51.4161 71.8178 51.4395 71.7585 51.4755 71.7055L51.4776 71.7034Z" fill="white"/>
<path d="M30.48 60.6981C29.9164 60.2743 29.4482 59.7975 29.052 59.2445C29.0139 59.1915 28.9694 59.1174 28.9249 59.039C28.73 58.7063 28.3423 58.0452 27.5203 58.1257C27.4928 58.1173 27.4631 58.1088 27.4355 58.1046C27.408 58.0961 27.3296 58.0304 27.2788 57.988C27.1644 57.8906 27.0203 57.7698 26.8212 57.6871C26.2449 57.4477 25.6347 57.4456 25.2259 57.4647C24.9695 57.4774 24.7068 57.4541 24.4293 57.4329C24.1327 57.4074 23.8255 57.382 23.5035 57.3969C23.3297 57.4053 23.1899 57.4519 23.0882 57.488C23.0543 57.5007 23.0056 57.5155 22.9992 57.5176C22.9081 57.5092 22.7958 57.4753 22.6751 57.4392C22.3975 57.3566 22.0204 57.2422 21.584 57.3651C21.5649 57.3693 21.5544 57.3714 21.548 57.3714C21.1306 57.1744 20.709 57.2189 20.4294 57.2718L20.3637 57.2846C20.2938 57.2973 20.1793 57.3206 20.1306 57.3163C19.6603 56.9138 19.1815 56.8841 18.6773 57.2168C18.6773 57.2168 18.6667 57.221 18.6455 57.2189C18.5247 57.2146 18.3891 57.1786 18.2324 57.1384C17.9633 57.0684 17.6582 56.99 17.2981 57.0345C17.1837 57.0472 17.0417 57.0345 16.8913 57.0197C16.6689 56.9985 16.4061 56.9731 16.1265 57.0239C15.9591 56.8989 15.7134 56.829 15.3532 56.9138C15.332 56.918 15.313 56.9243 15.2918 56.9286C15.2558 56.9349 15.2219 56.9434 15.188 56.9519C15.0248 56.5472 14.7812 56.3819 14.5439 56.3353C14.4083 56.1277 14.1774 56.0026 13.8554 55.9624C13.8363 55.9603 13.8172 55.9581 13.8045 55.956C13.652 55.9136 13.4888 55.937 13.3532 56.0196C13.26 56.0768 13.1859 56.1594 13.1393 56.2548C13.135 56.259 13.1287 56.2633 13.1245 56.2654C13.0355 56.3353 12.8511 56.4815 12.8321 56.7506C12.8278 56.8226 12.8363 56.8989 12.8596 56.9688C12.849 56.9837 12.8384 57.0006 12.8299 57.0176C12.6456 57.3354 12.688 57.6066 12.7643 57.7867C12.616 57.8291 12.474 57.9011 12.3596 58.0389C12.1372 58.3059 12.1689 58.6216 12.2007 58.9288C12.2007 58.95 12.2092 58.9691 12.2135 58.9881C12.205 58.9924 12.1965 58.9966 12.188 59.0008C11.8469 59.1407 11.652 59.4267 11.6584 59.7869C11.6584 59.8717 11.6795 59.9543 11.7156 60.0285C11.7706 60.5455 12.1372 60.7277 12.4656 60.7277C12.4867 60.7277 12.5079 60.7277 12.5291 60.7256C12.6753 60.715 12.8215 60.6451 12.9571 60.5413C12.9507 60.6557 12.9698 60.751 12.9931 60.8188C13.0842 61.09 13.3278 61.2829 13.6625 61.3464C13.743 61.3613 13.8448 61.4058 13.9528 61.4524C14.1541 61.5392 14.4146 61.6515 14.7303 61.6558C14.8384 61.802 14.993 61.9058 15.171 61.9461C15.332 61.9821 15.4994 61.963 15.6498 61.8973C15.7007 61.9503 15.7706 62.0139 15.8595 62.069C16.0566 62.1876 16.2917 62.2046 16.4888 62.1113C16.6625 62.0308 16.7854 61.8783 16.8384 61.6897C17.0884 61.7999 17.4591 61.9609 17.9061 61.8168C18.173 61.9461 18.4336 61.963 18.6455 61.9778C18.7599 61.9863 18.868 61.9927 18.9379 62.016C19.2006 62.1071 19.4887 62.0435 19.7281 61.8422C19.7493 61.8232 19.7641 61.8168 19.7641 61.8147C19.7747 61.8147 19.8192 61.8274 19.9061 61.8889L19.923 61.8995C20.0416 61.9842 20.3594 62.2088 20.7789 62.0308C21.1518 61.8719 21.4802 61.8825 21.8128 62.0668C22.1582 62.2554 22.5034 62.1579 22.6178 62.1262C22.6772 62.1092 22.7767 62.1113 22.8806 62.1135C22.925 62.1135 22.9696 62.1135 23.0162 62.1156C23.0204 62.1177 23.0268 62.1198 23.031 62.1219C23.1497 62.1728 23.5013 62.3275 23.8255 62.0901C23.8657 62.0965 23.9378 62.1156 23.9865 62.1283C24.1687 62.1791 24.442 62.2533 24.7364 62.1749C25.1538 62.3126 25.5606 62.2533 25.9186 62.1664C26.1199 62.2512 26.3148 62.2787 26.497 62.2787C26.6792 62.2787 26.8551 62.2491 26.9991 62.2258C27.1305 62.2046 27.2576 62.1834 27.3529 62.1897C27.4334 62.194 27.5224 62.2067 27.6178 62.2194C27.9144 62.2575 28.3021 62.3084 28.7004 62.1749C29.0923 62.2787 29.4482 62.1876 29.7236 62.1198C29.8613 62.0838 29.9927 62.052 30.0923 62.052C30.4884 62.052 30.8169 61.7787 30.8719 61.4036C30.8931 61.2638 30.8952 60.9163 30.4863 60.6959L30.48 60.6981Z" fill="white"/>
<path d="M9.69916 59.0306C9.79026 58.7826 9.78814 58.558 9.69492 58.3589C9.62924 58.2211 9.48944 58.0347 9.19072 57.9351C9.14199 57.9181 9.0954 57.9054 9.04879 57.897C8.93438 57.6491 8.72675 57.4774 8.45557 57.399C8.45981 57.3884 8.46194 57.38 8.46405 57.3757C8.67168 56.9392 8.53817 56.4455 8.16318 56.2103C8.16318 56.204 8.16318 56.1976 8.16318 56.1934C8.16318 56.1658 8.15894 56.1383 8.15682 56.1129C8.2458 55.6234 7.90896 55.4158 7.80091 55.3649C7.79879 55.3649 7.79666 55.3628 7.79455 55.3607C7.89412 55.2971 7.9704 55.2293 8.01913 55.1827C8.03396 55.1679 8.0509 55.1551 8.06573 55.1424C8.142 55.0789 8.20347 55.0026 8.25219 54.92C8.35601 54.9708 8.4598 54.9899 8.5509 54.9899C8.65683 54.9899 8.7458 54.9666 8.803 54.9475C9.02545 54.8712 9.40895 54.6466 9.47463 54.0237C9.4831 53.9368 9.4746 53.8478 9.44282 53.7652C9.41528 53.6889 9.38139 53.6211 9.35173 53.5596C9.33055 53.5151 9.29876 53.4495 9.29029 53.4177C9.29664 52.9282 9.02757 52.6845 8.79876 52.5553C8.94282 52.3921 9.0742 52.1294 9.03607 51.8391C9.00429 51.6145 8.87294 51.4196 8.67591 51.303C8.63566 51.2797 8.59327 51.2586 8.54878 51.2437C8.56573 51.0763 8.55725 50.9217 8.54878 50.7818C8.5403 50.6589 8.53395 50.5509 8.54878 50.4703L8.55302 50.4491C8.69073 49.6906 8.2289 49.4427 7.94077 49.3622L7.83691 49.3325C7.33692 49.1927 6.86449 49.0592 6.48315 49.5846C6.04672 49.5423 5.78614 49.7499 5.64631 49.9364C5.1548 50.0614 4.80735 50.3729 4.63998 50.8284C4.34761 50.7543 4.05099 50.8094 3.82854 50.9789C3.61668 51.1399 3.49171 51.3857 3.48535 51.6548C3.48535 51.7417 3.47684 51.7862 3.34337 51.9006C3.30524 51.9324 3.27134 51.9684 3.23744 52.0023C2.93237 52.0722 2.70359 52.3265 2.63792 52.6761C2.6358 52.6888 2.63367 52.7015 2.63155 52.7121C2.60401 52.7121 2.57224 52.7079 2.53199 52.7057C2.01929 52.6676 1.66968 52.8244 1.49172 53.174C1.43028 53.2948 1.31377 53.4071 1.18029 53.5406C1.00869 53.708 0.815917 53.8987 0.671852 54.1656C0.650666 54.2059 0.62947 54.2462 0.608284 54.2864C0.517184 54.4623 0.438784 54.6127 0.330736 54.7208C0.190908 54.8585 0.0319991 55.1255 0.0510665 55.4221C0.0595409 55.5535 0.101927 55.6764 0.171841 55.7802C-0.0251885 56.2294 -0.0548219 56.6998 0.0934798 57.077C0.201528 57.3524 0.379459 57.7571 0.697249 58.0919C0.805297 58.2063 0.955709 58.2699 1.11249 58.2699C1.18875 58.2699 1.26503 58.255 1.33495 58.2254C1.47901 58.3313 1.6252 58.4097 1.75867 58.4818C1.91332 58.5644 2.04468 58.6343 2.12942 58.7233C2.35399 58.9564 2.71418 59.0157 3.00443 58.8801C3.0129 58.8928 3.02135 58.9055 3.03195 58.9225C3.40058 59.5115 3.95779 59.7383 4.6887 59.5921C4.7459 59.5815 4.77344 59.5815 4.83699 59.6323C5.43656 60.126 6.07424 60.3527 6.78609 60.3315C7.27761 60.3167 7.73313 60.4714 8.13566 60.7977C8.26913 60.9947 8.45345 61.0456 8.55726 61.0583C8.58056 61.0604 8.60177 61.0625 8.62507 61.0625C8.78396 61.0625 8.93858 60.9969 9.05934 60.8718C9.09536 60.8803 9.14198 60.8952 9.17587 60.9036C9.23731 60.9206 9.29878 60.9397 9.36022 60.9545C9.6314 61.018 9.89408 60.9587 10.0805 60.7913C10.1928 60.6896 10.3708 60.4566 10.3136 60.0455C10.2437 59.5433 10.0403 59.2043 9.70764 59.0284L9.69916 59.0306ZM7.00219 54.0936C6.99796 54.1444 6.98313 54.1974 6.95559 54.244C6.90051 54.2271 6.84967 54.2122 6.81154 54.1932L6.84542 53.9156C6.9344 53.9283 7.01067 54.0067 7.00219 54.0936ZM6.77761 54.1741C6.77761 54.1741 6.76917 54.1678 6.76494 54.1656C6.7268 54.136 6.68654 54.1127 6.64628 54.0894C6.65264 54.0173 6.68654 53.9516 6.75221 53.9241L6.77761 54.1741ZM6.66113 50.9047C6.60393 50.9005 6.53821 50.8729 6.51915 50.8051L6.83057 50.767C6.82634 50.8835 6.72892 50.9111 6.65901 50.9068L6.66113 50.9047ZM6.83269 50.7649L6.5149 50.7543C6.5149 50.7543 6.5149 50.75 6.5149 50.7479C6.60389 50.7585 6.70986 50.7585 6.82214 50.731C6.82638 50.7415 6.83058 50.7521 6.83269 50.7649ZM2.55102 53.8542C2.62093 53.8563 2.6866 53.8584 2.75228 53.8542C2.77134 53.8754 2.78833 53.8965 2.79257 53.9198C2.79257 53.9262 2.79469 53.9347 2.79681 53.941C2.7269 53.8987 2.64424 53.8669 2.55102 53.8542ZM2.54254 54.9793C2.515 54.9856 2.48747 54.9899 2.45781 54.9899C2.35612 54.9941 2.27352 54.9602 2.21844 54.9284C2.21844 54.9284 2.21844 54.9242 2.21844 54.9221C2.32225 54.8966 2.44296 54.9178 2.54254 54.9793Z" fill="white"/>
<path d="M28.8127 52.9877C29.0542 52.9877 29.3021 52.8881 29.5203 52.6931C29.6877 52.5427 29.8763 52.352 29.997 52.0765C30.0415 51.9748 30.0797 51.9409 30.0945 51.9303C30.4504 51.6718 30.7703 51.3137 31.0754 50.8306C31.2195 50.6018 31.444 50.4344 31.7046 50.2416C31.9313 50.0742 32.1898 49.8814 32.4101 49.6271C32.783 49.1928 33.105 48.9533 33.4546 48.8453C33.6114 48.7965 33.7406 48.6927 33.8381 48.5338C34.0076 48.2605 34.2681 48.0528 34.7109 47.8388C34.9185 47.7371 35.0456 47.5697 35.1219 47.468C35.4227 47.0675 35.2893 46.6713 35.0245 46.4573C34.5457 46.0717 34.158 46.3196 34.0521 46.4043C33.9165 46.5124 33.7406 46.5887 33.5372 46.6755C33.3571 46.7539 33.1707 46.8323 32.9822 46.9489C32.836 47.0379 32.6855 47.0866 32.5372 47.093C32.0605 47.1142 31.8614 47.3854 31.7809 47.6142C31.5902 47.6036 31.3869 47.6587 31.2407 47.843C31.1623 47.9426 31.0267 48.0231 30.8678 48.1185C30.7216 48.2054 30.5563 48.3028 30.4017 48.4406L30.3699 48.4681C30.3551 48.4808 30.336 48.4978 30.3212 48.5105C29.9547 48.4639 29.7407 48.6291 29.6411 48.7372C29.5966 48.7859 29.5415 48.8601 29.5034 48.9618C29.3021 48.9999 29.1115 49.1144 28.9568 49.2945C28.7556 49.5297 28.7047 49.8454 28.7979 50.1251C28.5649 50.3158 28.4759 50.5658 28.4293 50.695L28.4229 50.7141C28.3382 50.9535 28.2789 51.1061 28.173 51.2014C27.9547 51.3964 27.8276 51.6718 27.8234 51.9579C27.8191 52.2418 27.9378 52.5194 28.1475 52.7164C28.3445 52.9029 28.5754 52.994 28.8106 52.994L28.8127 52.9877Z" fill="white"/>
<path d="M27.069 55.9455C27.0838 55.9582 27.1008 55.9688 27.1135 55.9815C27.2513 56.115 27.4398 56.1912 27.6305 56.1912C27.6644 56.1912 27.6961 56.1891 27.73 56.1849C27.9525 56.1531 28.1453 56.0238 28.2597 55.8268C28.2936 55.7696 28.3275 55.7103 28.3614 55.653C28.5732 55.2928 28.8084 54.8881 28.9376 54.422C28.9355 54.4728 28.9355 54.5237 28.9398 54.5745C29.0203 55.2992 29.5859 55.3416 29.7194 55.3416C29.7215 55.3416 29.7257 55.3416 29.7279 55.3416C30.0372 55.3373 30.3126 55.225 30.5054 55.0259C30.6876 54.8394 30.785 54.583 30.7787 54.3076C30.7787 54.2821 30.7766 54.2588 30.7723 54.2355C30.7109 53.8117 30.3486 53.5236 29.8868 53.5299C29.6135 53.5342 29.3508 53.6571 29.1665 53.8668C29.0923 53.9516 29.0351 54.0469 28.9948 54.1486C29.0054 54.0766 29.0054 54.0067 28.9864 53.9346C28.9842 53.9156 28.9842 53.8965 28.9842 53.8774C28.9821 53.7778 28.9779 53.6295 28.908 53.4621C28.7343 53.0426 28.3571 52.8222 27.9694 52.9155C27.4779 53.0341 27.1496 53.3223 26.9949 53.7694C26.9186 53.994 26.8784 54.2186 26.8445 54.4156C26.8106 54.6063 26.7809 54.7864 26.7216 54.9369C26.5352 55.4073 26.8084 55.7463 27.069 55.9497V55.9455Z" fill="white"/>
<path d="M11.9737 52.3583C11.9758 52.3138 11.9779 52.2671 11.9779 52.2205C11.9716 51.9154 11.8911 51.7035 11.7809 51.5531C11.7957 51.5531 11.8105 51.5552 11.8233 51.5552C12.1241 51.5552 12.4038 51.3603 12.5224 51.0488C12.5732 50.9174 12.5965 50.7924 12.6198 50.6716C12.6283 50.6293 12.6368 50.5848 12.6474 50.536C12.6877 50.3496 12.6347 50.1546 12.5012 50.0169C12.3677 49.8792 12.1771 49.8177 11.9885 49.8495C11.6792 49.9046 11.5055 50.0741 11.4123 50.1652C11.4038 50.1737 11.3953 50.1822 11.3889 50.1885C10.9207 50.5021 10.9991 50.9386 11.122 51.1484C11.1326 51.1675 11.1453 51.1844 11.1559 51.2014C11.0097 51.1738 10.7724 51.1526 10.55 51.3031C10.3996 51.4048 10.2979 51.5616 10.2598 51.7459C10.2513 51.7607 10.2407 51.7756 10.2322 51.7904C10.0521 52.0765 10.0161 52.3159 10.0564 52.5108C9.84876 52.6358 9.70045 52.8477 9.63266 53.1211C9.56698 53.3838 9.63687 53.5809 9.7089 53.7016C9.87415 53.975 10.1601 54.0449 10.2809 54.0745L10.3085 54.0809C10.4208 54.1127 10.533 54.1275 10.6432 54.1275C10.9059 54.1275 11.1517 54.0385 11.3614 53.8648L11.4038 53.8288C11.6813 53.5978 12.2491 53.1316 11.9715 52.354L11.9737 52.3583ZM12.1707 50.8539L12.1262 50.6017C12.1686 50.6844 12.1792 50.7734 12.1707 50.8539Z" fill="white"/>
<path d="M14.3038 49.2181C14.3462 49.2287 14.3886 49.2329 14.431 49.2329C14.539 49.2329 14.6471 49.2011 14.7403 49.1418C14.7488 49.1375 14.7594 49.1354 14.7679 49.1312C14.8823 49.0867 15.1195 48.9913 15.2784 48.7223L15.3059 48.6777C15.3377 48.6269 15.3759 48.557 15.4077 48.4743C15.4395 48.4786 15.4712 48.4807 15.5051 48.4807C15.717 48.4807 15.9543 48.3832 16.1894 48.0823L16.2063 48.0612C16.2551 47.9997 16.3017 47.9361 16.3483 47.8705C16.4712 47.7031 16.5771 47.5569 16.7 47.4891C16.7106 47.4848 16.7212 47.4785 16.7318 47.4742C17.0115 47.3492 17.1492 47.1755 17.2085 46.9975C17.2127 46.9975 17.2169 46.9975 17.2233 46.9954C17.344 46.9699 17.4818 46.9594 17.628 46.9466C17.8547 46.9276 18.1046 46.9043 18.3483 46.828C18.4288 46.8725 18.5051 46.9064 18.5771 46.9276C18.6873 47.0483 18.8377 47.1161 18.9966 47.1161C19.0601 47.1161 19.1258 47.1056 19.1915 47.0801C19.2127 47.0738 19.2338 47.0717 19.255 47.0674C19.4732 47.0314 19.719 46.9424 19.8821 46.7411C19.9838 46.7284 20.0813 46.686 20.1618 46.6203C20.3037 46.5059 20.3736 46.3661 20.4118 46.2432C20.5453 46.1966 20.6639 46.1393 20.7677 46.0885C20.8757 46.0355 20.969 45.991 21.0495 45.972C21.1194 45.955 21.1872 45.9402 21.2592 45.9253C21.6384 45.8406 22.0707 45.7474 22.4393 45.5312C22.6151 45.4274 22.827 45.366 23.0494 45.3003C23.2613 45.2367 23.4816 45.1731 23.7083 45.0651C24.06 44.8998 24.8291 44.1709 24.7231 43.512C24.6914 43.3107 24.6913 43.1051 24.6956 42.9144C24.7062 42.5119 24.488 42.1686 24.1257 42.016C23.8757 41.9101 23.5261 41.9186 23.2316 42.2131C22.8757 42.1686 22.6109 42.3487 22.4689 42.444C22.4435 42.461 22.416 42.4801 22.3884 42.4949C22.2952 42.5479 22.2041 42.6051 22.1151 42.6623C21.8906 42.8043 21.6978 42.9271 21.5134 42.9335C21.2656 42.9441 20.9139 42.9928 20.6236 43.2831C20.1766 43.1475 19.4563 43.4823 19.2359 43.6433C19.0728 43.7641 18.9923 43.8976 18.9521 44.0141C18.8864 44.0353 18.8144 44.0671 18.7423 44.1137C18.3144 43.8997 17.8695 44.0184 17.6089 44.4104C17.5962 44.4231 17.5601 44.44 17.5453 44.4421C17.147 44.457 16.8652 44.6286 16.6407 44.7663C16.6025 44.7896 16.5644 44.8129 16.5241 44.8363C16.4691 44.868 16.414 44.904 16.3589 44.9443C16.3187 44.9719 16.2614 45.01 16.2276 45.0269C16.0729 45.0036 15.7 44.9973 15.4691 45.4444C15.45 45.4761 15.4352 45.51 15.4204 45.544C15.2636 45.5673 15.0983 45.6414 14.9415 45.8046C14.5729 46.1902 14.5157 46.6775 14.789 47.1077C14.806 47.1331 14.8229 47.1585 14.842 47.1861C14.8335 47.2369 14.8251 47.2857 14.8166 47.328C14.681 47.2814 14.5157 47.2602 14.3357 47.3259C14.2234 47.3662 14.0899 47.4467 13.9839 47.6077C13.8505 47.6459 13.6556 47.7285 13.5306 47.9361C13.4607 48.0569 13.3907 48.254 13.4691 48.521C13.5729 48.8748 13.8526 49.1079 14.3017 49.2117L14.3038 49.2181Z" fill="white"/>
<path d="M62.6634 63.4929C62.9113 63.4929 63.1486 63.3869 63.3223 63.2831C63.532 63.1581 63.8901 62.8869 63.9452 62.4906C63.996 62.1114 63.7969 61.7872 63.4473 61.6855C63.2355 61.624 63.0109 61.6558 62.835 61.7723C62.8308 61.7766 62.8244 61.7787 62.8202 61.7829C62.7736 61.7829 62.7248 61.7893 62.6719 61.802C62.4325 61.7808 62.2524 61.8507 62.138 61.9228C61.9431 62.0457 61.8096 62.2491 61.763 62.497C61.7249 62.7004 61.7079 63.1983 62.3901 63.4484C62.4812 63.4823 62.5723 63.495 62.6634 63.495V63.4929Z" fill="white"/>
<path d="M160 32.8H164.1V49.2H160V53.3H151.8V49.2H155.9V32.8H151.8V28.7H135.4V57.4H143.6V61.5H135.4V77.9H143.6V82H123.1V77.9H127.2V28.7H123.1V24.6H155.9V28.7H160V32.8ZM143.6 53.3H151.8V57.4H143.6V53.3ZM184.568 49.2H188.668V57.4H184.568V77.9H188.668V82H172.268V77.9H176.368V49.2H172.268V45.1H180.468V41H184.568V49.2ZM205.068 45.1H209.168V53.3H200.968V45.1H192.768V41H205.068V45.1ZM188.668 49.2V45.1H192.768V49.2H188.668ZM250.152 45.1H254.252V57.4H250.152V61.5H225.552V73.8H229.652V77.9H250.152V82H225.552V77.9H221.452V73.8H217.352V49.2H221.452V45.1H225.552V41H250.152V45.1ZM246.052 57.4V45.1H229.652V49.2H225.552V57.4H246.052ZM254.252 73.8V77.9H250.152V73.8H254.252ZM274.736 69.7H278.836V73.8H274.736V86.1H278.836V90.2H282.936V94.3H266.536V49.2H262.436V45.1H270.636V41H274.736V49.2H278.836V53.3H274.736V69.7ZM303.436 49.2H307.536V73.8H303.436V77.9H299.336V82H282.936V77.9H295.236V73.8H299.336V49.2H295.236V45.1H282.936V41H299.336V45.1H303.436V49.2ZM282.936 45.1V49.2H278.836V45.1H282.936ZM278.836 73.8H282.936V77.9H278.836V73.8ZM262.436 98.4V94.3H266.536V98.4H262.436ZM328.068 77.9H332.168V82H315.768V77.9H319.868V28.7H315.768V24.6H332.168V28.7H328.068V77.9ZM364.952 77.9V82H348.552V77.9H344.452V73.8H340.352V49.2H344.452V45.1H348.552V41H369.052V45.1H352.652V49.2H348.552V73.8H352.652V77.9H364.952ZM381.352 90.2H385.452V94.3H369.052V90.2H373.152V73.8H369.052V69.7H373.152V49.2H369.052V45.1H377.252V41H381.352V90.2ZM364.952 77.9V73.8H369.052V77.9H364.952ZM364.952 98.4V94.3H369.052V98.4H364.952Z" fill="white"/>
</svg>
